<svg width="239" height="96" viewBox="0 0 239 96" fill="none" xmlns="http://www.w3.org/2000/svg">
<path d="M46.5151 78.729C48.1768 78.7282 49.8357 78.5944 51.4761 78.329C54.9291 77.7714 58.2613 76.6269 61.3281 74.945C61.7804 74.6968 62.1156 74.279 62.2599 73.7836C62.4043 73.2882 62.3459 72.7559 62.0976 72.3035C61.8494 71.8512 61.4316 71.516 60.9362 71.3717C60.4409 71.2274 59.9084 71.2858 59.4561 71.534C56.7784 73 53.8699 73.9977 50.8561 74.484C45.4044 75.3723 39.8114 74.5663 34.8322 72.1751C29.853 69.7838 25.7274 65.9224 23.0124 61.1121C20.2974 56.3017 19.1237 50.7742 19.6498 45.2757C20.1759 39.7771 22.3765 34.5725 25.9544 30.3643C29.5323 26.156 34.3152 23.147 39.6575 21.7433C44.9998 20.3396 50.6441 20.6089 55.8285 22.5148C61.0129 24.4207 65.4877 27.8714 68.6488 32.4011C71.8098 36.9308 73.5049 42.3214 73.5051 47.845C73.5253 53.7788 71.5706 59.5506 67.9491 64.251C67.6347 64.6607 67.4959 65.1784 67.5632 65.6904C67.6305 66.2023 67.8985 66.6666 68.3081 66.981C68.7177 67.2954 69.2355 67.4342 69.7475 67.3669C70.2594 67.2996 70.7237 67.0317 71.0381 66.622C75.1834 61.2424 77.4212 54.6365 77.3991 47.845C77.3987 41.7379 75.5874 35.7681 72.1942 30.6903C68.8011 25.6126 63.9784 21.6551 58.3361 19.3182C52.6938 16.9813 46.4852 16.3699 40.4954 17.5615C34.5057 18.753 29.0037 21.6939 24.6854 26.0123C20.367 30.3307 17.4261 35.8326 16.2346 41.8223C15.043 47.8121 15.6544 54.0207 17.9913 59.663C20.3282 65.3053 24.2857 70.128 29.3634 73.5211C34.4411 76.9143 40.411 78.7256 46.5181 78.726L46.5151 78.729Z" fill="#3B421B"/>
<path d="M32.1311 81.647C30.672 82.3303 29.5433 83.5641 28.9924 85.0782C28.4415 86.5922 28.5133 88.2629 29.1921 89.724L30.3671 92.234L32.8771 91.065C34.3376 90.3834 35.4677 89.1496 36.0189 87.635C36.57 86.1204 36.497 84.4489 35.8161 82.988L34.6471 80.478L32.1311 81.647ZM31.5681 88.92L31.4501 88.668C31.0497 87.8058 31.0079 86.82 31.3337 85.927C31.6596 85.034 32.3265 84.3068 33.1881 83.905L33.4351 83.787L33.5531 84.039C33.753 84.4653 33.8667 84.9268 33.8878 85.3971C33.909 85.8674 33.837 86.3373 33.6761 86.7797C33.5152 87.2222 33.2685 87.6285 32.9501 87.9753C32.6318 88.3222 32.2481 88.6028 31.8211 88.801L31.5681 88.92Z" fill="#3B421B"/>
<path d="M58.386 15.2239L60.901 14.0489C62.3608 13.3665 63.4902 12.1327 64.0412 10.6183C64.5923 9.10402 64.5199 7.43294 63.84 5.97192L62.665 3.46191L60.155 4.63593C59.4316 4.97251 58.7817 5.44842 58.2424 6.03641C57.7031 6.62439 57.285 7.31292 57.0121 8.06262C56.7391 8.81233 56.6166 9.60849 56.6516 10.4056C56.6866 11.2027 56.8784 11.985 57.216 12.7079L58.386 15.2239ZM61.465 6.78192L61.578 7.02893C61.9796 7.89027 62.0227 8.87581 61.6979 9.76895C61.3732 10.6621 60.707 11.3897 59.846 11.7919L59.599 11.9049L59.486 11.6519C59.2863 11.226 59.1728 10.7649 59.1518 10.295C59.1308 9.82504 59.2029 9.3556 59.3638 8.9136C59.5247 8.47161 59.7714 8.06575 60.0896 7.71933C60.4078 7.37291 60.7912 7.09275 61.218 6.89493L61.465 6.78192Z" fill="#3B421B"/>
<path d="M18.919 83.7921C20.5243 83.6498 22.0076 82.8764 23.0432 81.6416C24.0789 80.4069 24.5823 78.8116 24.443 77.2061L24.202 74.4441L21.44 74.6851C20.6452 74.755 19.8718 74.9809 19.1643 75.3497C18.4567 75.7186 17.8287 76.2232 17.3162 76.8348C16.8037 77.4464 16.4167 78.153 16.1773 78.9142C15.9379 79.6753 15.8508 80.4762 15.921 81.2711L16.162 84.0331L18.919 83.7921ZM21.938 77.1471L21.959 77.4201C22.0417 78.3665 21.7453 79.3071 21.135 80.0351C20.5247 80.7632 19.6503 81.2193 18.704 81.3031L18.43 81.3241L18.409 81.0451C18.3258 80.0986 18.622 79.1577 19.2324 78.4295C19.8428 77.7013 20.7175 77.2454 21.664 77.1621L21.938 77.1471Z" fill="#3B421B"/>
<path d="M71.5981 21.011C73.2025 20.8666 74.6845 20.0926 75.7197 18.8584C76.7549 17.6241 77.2592 16.03 77.1221 14.425L76.8751 11.668L74.1181 11.909C72.5128 12.0513 71.0295 12.8247 69.9939 14.0594C68.9582 15.2942 68.4548 16.8894 68.5941 18.495L68.841 21.252L71.5981 21.011ZM74.6121 14.371L74.6341 14.645C74.6775 15.1134 74.6267 15.5858 74.4848 16.0344C74.343 16.483 74.1129 16.8986 73.8081 17.257C73.5066 17.6184 73.1368 17.9167 72.7198 18.1348C72.3028 18.3529 71.8468 18.4865 71.3781 18.528L71.0991 18.549L71.0771 18.276C71.036 17.8069 71.0878 17.3342 71.2295 16.8851C71.3712 16.436 71.6 16.0193 71.9029 15.6587C72.2057 15.2981 72.5767 15.0007 72.9945 14.7835C73.4124 14.5663 73.8689 14.4336 74.3381 14.3929L74.6121 14.371Z" fill="#3B421B"/>
<path d="M9.16498 65.102C8.47227 65.4998 7.86502 66.0306 7.37814 66.6639C6.89127 67.2971 6.53437 68.0204 6.32797 68.792L5.61499 71.474L8.29099 72.187C9.84829 72.6028 11.507 72.3835 12.9027 71.5772C14.2984 70.771 15.3171 69.4438 15.735 67.887L16.448 65.205L13.772 64.4921C13.0024 64.2794 12.198 64.2238 11.4065 64.3286C10.615 64.4334 9.85266 64.6964 9.16498 65.102ZM13.128 66.9021L13.396 66.972L13.321 67.24C13.1999 67.6944 12.9905 68.1204 12.7047 68.4938C12.4189 68.8672 12.0624 69.1806 11.6555 69.4162C11.2486 69.6518 10.7992 69.8049 10.3331 69.8668C9.86703 69.9287 9.3933 69.8983 8.939 69.7771L8.67099 69.707L8.74097 69.439C8.86227 68.9843 9.07202 68.5579 9.35818 68.1843C9.64435 67.8106 10.0013 67.4971 10.4088 67.2615C10.8162 67.0259 11.266 66.8728 11.7326 66.8112C12.1992 66.7495 12.6734 66.7804 13.128 66.9021Z" fill="#3B421B"/>
<path d="M79.2631 31.206C79.7775 31.3436 80.3075 31.4138 80.84 31.415C82.1764 31.4125 83.4747 30.97 84.5343 30.1557C85.5939 29.3414 86.3557 28.2007 86.702 26.91L87.415 24.234L84.739 23.515C83.9679 23.3082 83.1636 23.2554 82.372 23.3596C81.5805 23.4638 80.8172 23.723 80.1259 24.1223C79.4346 24.5217 78.8288 25.0533 78.343 25.687C77.8573 26.3206 77.5012 27.0437 77.295 27.815L76.582 30.497L79.2631 31.206ZM84.1 25.923L84.368 25.998L84.293 26.266C84.173 26.7213 83.9638 27.1481 83.6774 27.5219C83.3911 27.8956 83.0334 28.2087 82.6251 28.443C81.8016 28.9168 80.8243 29.0458 79.9061 28.802L79.6381 28.732L79.708 28.464C79.9544 27.5452 80.5552 26.7616 81.3785 26.2851C82.2019 25.8086 83.1806 25.678 84.1 25.922V25.923Z" fill="#3B421B"/>
<path d="M5.75092 58.7361C6.72925 58.7369 7.69338 58.5018 8.56165 58.051C9.42991 57.6002 10.1767 56.9467 10.7389 56.1461L12.3269 53.8771L10.0579 52.2891C9.40488 51.831 8.66793 51.5061 7.88922 51.3331C7.11052 51.1601 6.30535 51.1424 5.51978 51.2809C4.7342 51.4193 3.98364 51.7114 3.31104 52.1402C2.63843 52.5691 2.05695 53.1263 1.59991 53.7801L0.0129395 56.0491L2.28192 57.6361C3.29514 58.3558 4.50813 58.7404 5.75092 58.7361ZM3.47693 55.4361L3.63794 55.2111C4.18504 54.4344 5.01739 53.9059 5.95303 53.7412C6.88868 53.5765 7.85147 53.7889 8.63092 54.3321L8.85593 54.4931L8.69492 54.7181C8.14848 55.4956 7.31614 56.0248 6.38025 56.1897C5.44436 56.3547 4.48125 56.1419 3.70193 55.5981L3.47693 55.4361Z" fill="#3B421B"/>
<path d="M82.2979 39.5509L80.7109 41.8189L82.9799 43.4069C83.9954 44.1227 85.2075 44.5069 86.4499 44.5069C86.8079 44.506 87.165 44.4726 87.5169 44.4069C88.3038 44.2696 89.0558 43.9781 89.7296 43.549C90.4033 43.12 90.9857 42.5619 91.4429 41.9069L93.0309 39.6379L90.7619 38.0509C89.4402 37.1287 87.8065 36.7687 86.2196 37.0499C84.6327 37.3311 83.2222 38.2306 82.2979 39.5509ZM89.5599 40.2589L89.3989 40.4839C89.1298 40.87 88.7871 41.1991 88.3905 41.4525C87.9939 41.7058 87.5512 41.8783 87.0877 41.96C86.6243 42.0418 86.1492 42.0312 85.6899 41.9289C85.2305 41.8266 84.7958 41.6346 84.4109 41.3639L84.1859 41.2029L84.3469 40.9779C84.6169 40.5922 84.9602 40.2634 85.3573 40.0104C85.7544 39.7574 86.1974 39.5851 86.6611 39.5034C87.1248 39.4217 87.6 39.4321 88.0596 39.5342C88.5193 39.6362 88.9543 39.8277 89.3399 40.0979L89.5599 40.2589Z" fill="#3B421B"/>
<path d="M5.51303 44.419C5.86536 44.4815 6.22221 44.5149 6.58002 44.519C7.82285 44.5216 9.03565 44.1371 10.05 43.419L12.319 41.831L10.731 39.562C9.80535 38.2434 8.39442 37.3459 6.80783 37.0664C5.22124 36.7869 3.58858 37.1482 2.26804 38.071L-0.000976562 39.658L1.58603 41.927C2.04416 42.5806 2.62692 43.1372 3.30084 43.5649C3.97477 43.9925 4.72657 44.2828 5.51303 44.419ZM3.47504 40.263L3.70001 40.102C4.47843 39.557 5.44121 39.343 6.3772 39.5068C7.31319 39.6706 8.14601 40.199 8.69302 40.976L8.85403 41.207L8.62302 41.368C7.8422 41.9118 6.87909 42.1272 5.94101 41.968C5.47733 41.8874 5.03429 41.7155 4.63757 41.4623C4.24086 41.2091 3.89839 40.8796 3.63004 40.493L3.47504 40.263Z" fill="#3B421B"/>
<path d="M93.03 56.048L91.442 53.779C90.9845 53.1251 90.4026 52.5677 89.7296 52.1388C89.0565 51.7099 88.3055 51.4178 87.5195 51.2794C86.7335 51.1409 85.928 51.1587 85.1489 51.3318C84.3698 51.5048 83.6324 51.8298 82.9789 52.288L80.71 53.875L82.297 56.144C82.8604 56.9431 83.6076 57.595 84.4756 58.0449C85.3437 58.4948 86.3072 58.7294 87.285 58.729C88.5295 58.7303 89.7438 58.346 90.761 57.629L93.03 56.048ZM89.56 55.437L89.335 55.598C88.5549 56.1395 87.5925 56.3508 86.6573 56.186C85.7221 56.0212 84.8899 55.4935 84.342 54.718L84.181 54.487L84.4059 54.332C84.7914 54.0614 85.2264 53.8695 85.6862 53.7673C86.1459 53.6651 86.6212 53.6545 87.085 53.7363C87.5488 53.818 87.9919 53.9904 88.389 54.2437C88.786 54.4969 89.1293 54.8259 89.399 55.212L89.56 55.437Z" fill="#3B421B"/>
<path d="M9.1611 30.6001C10.0828 31.1313 11.1273 31.4122 12.1911 31.4151C12.7252 31.4135 13.2569 31.3432 13.7731 31.206L16.4491 30.4931L15.7361 27.8111C15.5302 27.0401 15.1744 26.3173 14.6891 25.684C14.2037 25.0506 13.5984 24.5191 12.9075 24.1198C12.2167 23.7204 11.4539 23.4612 10.6629 23.3567C9.8718 23.2523 9.06792 23.3047 8.29712 23.511L5.62109 24.224L6.34012 26.9C6.54077 27.6733 6.89358 28.3989 7.37796 29.0342C7.86234 29.6695 8.46854 30.2018 9.1611 30.6001ZM11.6551 26.283C12.0634 26.5174 12.4212 26.8305 12.7075 27.2042C12.9938 27.5779 13.2031 28.0048 13.3231 28.46L13.3931 28.728L13.1251 28.7981C12.6705 28.9197 12.1963 28.9506 11.7297 28.8889C11.2632 28.8273 10.8133 28.6743 10.4059 28.4386C9.99847 28.203 9.64145 27.8894 9.35529 27.5158C9.06912 27.1422 8.8594 26.7158 8.7381 26.261L8.66312 25.9931L8.93109 25.918C9.85169 25.6757 10.8308 25.8069 11.6551 26.283Z" fill="#3B421B"/>
<path d="M83.8759 65.1019C83.1861 64.6994 82.4231 64.4381 81.6313 64.3332C80.8395 64.2283 80.0348 64.2819 79.2639 64.491L76.5879 65.204L77.3009 67.8859C77.5056 68.6576 77.8607 69.3812 78.3457 70.0152C78.8307 70.6493 79.4362 71.1813 80.1274 71.5808C80.8185 71.9803 81.5818 72.2395 82.3733 72.3433C83.1648 72.4471 83.9691 72.3937 84.7399 72.186L87.4159 71.4729L86.7029 68.7909C86.4991 68.0196 86.1443 67.2964 85.6591 66.6631C85.1738 66.0299 84.5677 65.4993 83.8759 65.1019ZM82.6259 67.263C83.0342 67.4973 83.3919 67.8105 83.6782 68.1842C83.9646 68.5579 84.1738 68.9847 84.2939 69.44L84.3639 69.708L84.1009 69.7779C83.6463 69.8996 83.1721 69.9305 82.7055 69.8688C82.2389 69.8072 81.7891 69.6541 81.3817 69.4185C80.9742 69.1829 80.6172 68.8694 80.3311 68.4957C80.0449 68.1221 79.8352 67.6957 79.7139 67.241L79.6439 66.9729L79.9119 66.9029C80.3651 66.7769 80.8392 66.7437 81.3055 66.8054C81.7719 66.8671 82.221 67.0224 82.6259 67.2619V67.263Z" fill="#3B421B"/>
<path d="M21.442 21.011L24.199 21.252L24.44 18.49C24.5096 17.6947 24.4217 16.8935 24.1815 16.1323C23.9412 15.371 23.5532 14.6646 23.0397 14.0533C22.5262 13.4421 21.8972 12.9381 21.1888 12.5702C20.4804 12.2022 19.7063 11.9776 18.911 11.909L16.154 11.668L15.913 14.425C15.8415 15.2208 15.928 16.023 16.1675 16.7853C16.407 17.5477 16.7948 18.2552 17.3086 18.8672C17.8223 19.4792 18.452 19.9837 19.1613 20.3516C19.8707 20.7195 20.6458 20.9435 21.442 21.011ZM21.935 18.549L21.662 18.528C21.1929 18.4877 20.7365 18.3552 20.3187 18.1381C19.901 17.921 19.5303 17.6235 19.2278 17.2627C18.9254 16.9019 18.6972 16.4849 18.5563 16.0357C18.4155 15.5865 18.3647 15.1138 18.407 14.645L18.428 14.3719L18.702 14.3929C19.6486 14.4773 20.5232 14.9333 21.1343 15.6611C21.7455 16.3888 22.0435 17.3291 21.963 18.276L21.935 18.549Z" fill="#3B421B"/>
<path d="M32.1311 14.049L34.6411 15.224L35.8161 12.7141C36.1537 11.9912 36.3455 11.2088 36.3805 10.4117C36.4155 9.6146 36.293 8.81843 36.0201 8.06873C35.7471 7.31902 35.329 6.6305 34.7897 6.04251C34.2504 5.45453 33.6005 4.97862 32.8771 4.64203L30.3671 3.46704L29.1931 5.97705C28.5131 7.43718 28.4406 9.10752 28.9915 10.6211C29.5424 12.1347 30.6716 13.3676 32.1311 14.049ZM31.5681 6.78204L31.8151 6.90002C32.2422 7.09825 32.6258 7.37884 32.9442 7.72571C33.2625 8.07257 33.5092 8.47889 33.6701 8.92133C33.831 9.36376 33.903 9.83363 33.8819 10.304C33.8608 10.7743 33.747 11.2358 33.5471 11.662L33.4341 11.914L33.1871 11.7961C32.3265 11.3933 31.6604 10.666 31.3347 9.77338C31.009 8.88074 31.0501 7.89543 31.4491 7.03305L31.5681 6.78204Z" fill="#3B421B"/>
<path d="M60.1591 91.065L62.6691 92.234L63.8441 89.724C64.5194 88.2624 64.5894 86.593 64.0388 85.08C63.4882 83.5669 62.3618 82.3329 60.9051 81.647L58.3871 80.478L57.2181 82.988C56.5372 84.4489 56.4642 86.1204 57.0154 87.635C57.5665 89.1496 58.6966 90.3834 60.1571 91.065H60.1591ZM59.6011 83.787L59.8481 83.905C60.709 84.3074 61.3749 85.0351 61.6997 85.9281C62.0244 86.8212 61.9814 87.8067 61.5801 88.668L61.4621 88.92L61.2151 88.802C60.7881 88.6031 60.4045 88.3217 60.0863 87.9742C59.7682 87.6266 59.5218 87.2197 59.3613 86.7768C59.2007 86.3338 59.1292 85.8635 59.1508 85.3929C59.1724 84.9222 59.2867 84.4604 59.4871 84.034L59.6011 83.787Z" fill="#3B421B"/>
<path d="M46.52 13.1349L48.478 11.1769C49.6148 10.0362 50.2531 8.49141 50.2531 6.88095C50.2531 5.27049 49.6148 3.7257 48.478 2.58496L46.52 0.626953L44.562 2.58496C43.9975 3.14896 43.5498 3.81866 43.2443 4.55579C42.9388 5.29292 42.7815 6.08302 42.7815 6.88095C42.7815 7.67888 42.9388 8.46898 43.2443 9.20612C43.5498 9.94325 43.9975 10.6129 44.562 11.1769L46.52 13.1349ZM45.276 6.87595C45.2741 6.40449 45.366 5.93737 45.5465 5.5018C45.7269 5.06624 45.9923 4.67095 46.327 4.33896L46.52 4.14597L46.713 4.33896C47.0462 4.67149 47.3105 5.06646 47.4909 5.50128C47.6713 5.9361 47.7641 6.40221 47.7641 6.87296C47.7641 7.3437 47.6713 7.80981 47.4909 8.24463C47.3105 8.67945 47.0462 9.07442 46.713 9.40695L46.52 9.59995L46.327 9.40695C45.9905 9.07666 45.7238 8.68219 45.5425 8.24692C45.3613 7.81165 45.2693 7.34444 45.272 6.87296L45.276 6.87595Z" fill="#3B421B"/>
<path d="M44.5581 84.5269C43.9936 85.0909 43.5459 85.7606 43.2404 86.4978C42.9349 87.2349 42.7776 88.025 42.7776 88.8229C42.7776 89.6209 42.9349 90.411 43.2404 91.1481C43.5459 91.8853 43.9936 92.555 44.5581 93.119L46.5161 95.0819L48.4771 93.119C49.6141 91.9784 50.2526 90.4335 50.2526 88.8229C50.2526 87.2124 49.6141 85.6676 48.4771 84.5269L46.5191 82.564L44.5581 84.5269ZM46.3281 86.292L46.5211 86.0989L46.7141 86.292C47.0473 86.6251 47.3117 87.0206 47.4921 87.4559C47.6725 87.8912 47.7653 88.3578 47.7653 88.8289C47.7653 89.3001 47.6725 89.7667 47.4921 90.202C47.3117 90.6373 47.0473 91.0328 46.7141 91.3659L46.5211 91.559L46.3281 91.3659C45.6562 90.693 45.2788 89.7811 45.2786 88.8302C45.2784 87.8793 45.6555 86.9671 46.3271 86.2939L46.3281 86.292Z" fill="#3B421B"/>
<path d="M66.949 36.635L66.724 34.297L64.386 34.517C63.2167 34.6301 62.1235 35.1471 61.2943 35.9792C60.4652 36.8113 59.9519 37.9064 59.843 39.076C59.2994 38.1489 58.4741 37.4195 57.4872 36.9941C56.5002 36.5687 55.4032 36.4695 54.356 36.711L52.066 37.253L52.608 39.538C52.9161 40.8404 53.7285 41.9672 54.8668 42.671C56.0051 43.3749 57.3762 43.5982 58.679 43.292L59.242 43.158C59.2342 43.3719 59.2612 43.5857 59.322 43.791C59.7697 45.094 59.9981 46.4623 59.998 47.84C59.9945 50.522 59.1543 53.1361 57.5945 55.3179C56.0347 57.4996 53.8331 59.1404 51.2965 60.0115C48.7599 60.8826 46.0147 60.9405 43.4436 60.1773C40.8725 59.414 38.6036 57.8676 36.9531 55.7536C35.3027 53.6396 34.3529 51.0633 34.2362 48.3838C34.1195 45.7044 34.8417 43.0553 36.3021 40.8058C37.7625 38.5563 39.8884 36.8185 42.3834 35.8346C44.8784 34.8507 47.6183 34.6698 50.221 35.317C50.7217 35.4422 51.2517 35.3633 51.6943 35.0978C52.1368 34.8322 52.4558 34.4017 52.581 33.901C52.7062 33.4003 52.6273 32.8703 52.3617 32.4278C52.0962 31.9852 51.6657 31.6662 51.165 31.541C47.7713 30.6929 44.1975 30.9254 40.9422 32.2059C37.6869 33.4864 34.9126 35.7511 33.0061 38.684C31.0997 41.6169 30.1564 45.0718 30.3077 48.5665C30.459 52.0613 31.6975 55.4217 33.8503 58.1789C36.0031 60.9361 38.9628 62.9525 42.3166 63.9468C45.6703 64.9411 49.2508 64.8638 52.5585 63.7255C55.8662 62.5873 58.7362 60.445 60.7679 57.5974C62.7996 54.7498 63.8917 51.3391 63.892 47.841C63.8907 46.0381 63.5934 44.2476 63.012 42.541C62.9431 42.3717 62.8509 42.2128 62.738 42.069C63.9992 41.8683 65.1365 41.1947 65.9187 40.1853C66.701 39.1758 67.0694 37.9064 66.949 36.635ZM62.192 39.935L62.063 39.946L62.052 39.812C62.0173 39.4415 62.0559 39.0678 62.1657 38.7123C62.2755 38.3568 62.4543 38.0263 62.6919 37.7399C62.9294 37.4535 63.2211 37.2167 63.5502 37.0431C63.8793 36.8695 64.2395 36.7624 64.61 36.728L64.744 36.717L64.755 36.851C64.8215 37.5993 64.5893 38.3435 64.1092 38.9213C63.629 39.4991 62.9398 39.8635 62.192 39.935ZM58.309 41.11L58.18 41.137C57.8179 41.2224 57.4426 41.2357 57.0754 41.1759C56.7082 41.1162 56.3564 40.9847 56.0401 40.7889C55.7238 40.5931 55.4492 40.3369 55.2319 40.035C55.0147 39.733 54.859 39.3912 54.774 39.029L54.742 38.9L54.871 38.873C55.2325 38.7868 55.6075 38.7728 55.9745 38.8317C56.3415 38.8906 56.6933 39.0213 57.0097 39.2164C57.326 39.4115 57.6008 39.667 57.8183 39.9685C58.0358 40.2699 58.1916 40.6113 58.277 40.973L58.309 41.11Z" fill="#3B421B"/>
<path d="M127.307 27.2799H121.172C121.372 23.1799 122.089 21.3698 122.679 20.5648C123.129 19.9732 123.72 19.5034 124.398 19.1981C125.075 18.8928 125.819 18.7618 126.56 18.8168H127.531V15.5668H126.56C125.252 15.4859 123.948 15.7801 122.801 16.4148C121.655 17.0495 120.713 17.9984 120.087 19.1498C118.848 21.3698 118.248 24.7759 118.248 29.5599V37.8028C118.277 39.7405 118.135 41.677 117.824 43.5899C117.667 44.7298 117.268 45.823 116.655 46.7969C116.266 47.3853 115.724 47.8579 115.089 48.1648C114.367 48.4392 113.598 48.5667 112.826 48.5398H111.855V51.7898H112.826C114.134 51.8707 115.438 51.5765 116.585 50.9418C117.731 50.3071 118.673 49.3583 119.299 48.2069C120.538 45.9869 121.139 42.5809 121.139 37.7969V30.5299H127.312V27.2799H127.307Z" fill="#3B421B"/>
<path d="M149.291 40.0609L149.623 39.4869L147.601 36.9499L146.901 38.2429C146.156 39.6209 144.809 40.2919 142.782 40.2919C142.008 40.3167 141.237 40.1872 140.513 39.9109C139.878 39.605 139.339 39.1321 138.952 38.5429C138.338 37.5697 137.939 36.4762 137.783 35.3359C137.469 33.4235 137.327 31.4867 137.359 29.5489C137.329 27.6111 137.471 25.6746 137.783 23.7619C137.94 22.6219 138.339 21.5285 138.952 20.5549C139.341 19.9656 139.882 19.4928 140.518 19.1869C141.24 18.9125 142.009 18.785 142.781 18.8119C143.482 18.7471 144.187 18.8493 144.841 19.11C145.494 19.3708 146.077 19.7826 146.54 20.3119L137.653 30.5219H141.713L150.113 20.8409L149.893 20.2939C149.379 18.842 148.408 17.5958 147.126 16.742C145.844 15.8882 144.32 15.4728 142.782 15.5579C141.471 15.4721 140.163 15.764 139.012 16.399C137.862 17.0341 136.918 17.9856 136.292 19.1409C135.064 21.3609 134.468 24.7669 134.468 29.5409C134.468 34.3149 135.068 37.7199 136.292 39.9409C136.918 41.0961 137.862 42.0475 139.012 42.6826C140.163 43.3176 141.471 43.6096 142.782 43.5239C144.082 43.6133 145.382 43.3361 146.532 42.724C147.683 42.1118 148.639 41.1892 149.291 40.0609Z" fill="#3B421B"/>
<path d="M171.59 40.0608L171.923 39.4868L169.901 36.9498L169.201 38.2428C168.455 39.6208 167.101 40.2918 165.082 40.2918C164.308 40.3166 163.537 40.1871 162.813 39.9108C162.178 39.605 161.638 39.1321 161.252 38.5428C160.64 37.5685 160.241 36.4754 160.083 35.3358C159.769 33.4234 159.627 31.4866 159.659 29.5488C159.629 27.611 159.771 25.6745 160.083 23.7618C160.239 22.6215 160.638 21.528 161.252 20.5548C161.641 19.9655 162.182 19.4927 162.818 19.1868C163.54 18.9124 164.309 18.7849 165.081 18.8118C165.782 18.7469 166.488 18.849 167.141 19.1097C167.795 19.3704 168.377 19.7824 168.841 20.3118L159.954 30.5288H164.014L172.407 20.8538L172.187 20.3068C171.673 18.8547 170.702 17.6084 169.42 16.7546C168.137 15.9008 166.613 15.4854 165.075 15.5708C163.764 15.4851 162.456 15.7771 161.305 16.4121C160.155 17.0471 159.211 17.9986 158.585 19.1538C157.357 21.3738 156.762 24.7798 156.762 29.5538C156.762 34.3278 157.362 37.7328 158.585 39.9538C159.211 41.109 160.155 42.0604 161.305 42.6955C162.456 43.3305 163.764 43.6225 165.075 43.5368C166.377 43.624 167.678 43.3446 168.829 42.7302C169.981 42.1159 170.937 41.1911 171.59 40.0608Z" fill="#3B421B"/>
<path d="M179.855 16.0018V43.1078H183.223C184.783 43.1611 186.335 42.8512 187.755 42.2025C189.175 41.5538 190.425 40.5841 191.407 39.3699C193.391 36.9459 194.4 33.6469 194.4 29.5549C194.4 25.4629 193.392 22.1649 191.407 19.7399C190.426 18.5251 189.176 17.5551 187.755 16.9063C186.335 16.2576 184.783 15.948 183.223 16.0018H179.855ZM183.218 39.8569H182.741V19.2418H183.218C184.356 19.1871 185.49 19.3974 186.533 19.8563C187.575 20.3151 188.497 21.0099 189.225 21.8859C190.737 23.6859 191.504 26.2679 191.504 29.5499C191.504 32.8319 190.737 35.4069 189.225 37.2089C188.498 38.0862 187.577 38.7822 186.534 39.2418C185.491 39.7015 184.356 39.912 183.218 39.8569Z" fill="#3B421B"/>
<path d="M216.347 40.0608L216.68 39.4868L214.658 36.9498L213.958 38.2428C213.213 39.6208 211.866 40.2918 209.839 40.2918C209.065 40.3167 208.294 40.1872 207.57 39.9108C206.935 39.605 206.396 39.1321 206.009 38.5428C205.397 37.5686 204.999 36.4755 204.84 35.3358C204.526 33.4234 204.384 31.4866 204.416 29.5488C204.386 27.6111 204.528 25.6745 204.84 23.7618C204.996 22.6216 205.395 21.528 206.009 20.5548C206.398 19.9655 206.939 19.4927 207.575 19.1868C208.297 18.9124 209.066 18.7849 209.838 18.8118C210.539 18.747 211.245 18.8491 211.898 19.1099C212.552 19.3706 213.135 19.7825 213.598 20.3118L204.709 30.5218H208.769L217.169 20.8408L216.949 20.2938C216.435 18.8418 215.464 17.5955 214.182 16.7416C212.9 15.8878 211.375 15.4725 209.837 15.5578C208.526 15.4722 207.218 15.7642 206.068 16.3993C204.918 17.0343 203.974 17.9857 203.348 19.1408C202.12 21.3608 201.525 24.7668 201.525 29.5408C201.525 34.3148 202.125 37.7198 203.348 39.9408C203.974 41.0958 204.918 42.0472 206.068 42.6822C207.218 43.3173 208.526 43.6093 209.837 43.5238C211.138 43.614 212.437 43.3372 213.588 42.725C214.739 42.1127 215.695 41.1897 216.347 40.0608Z" fill="#3B421B"/>
<path d="M234.426 29.8929C235.22 29.2757 235.897 28.522 236.426 27.6669C237.183 26.4514 237.574 25.0437 237.552 23.612C237.599 22.5792 237.426 21.5482 237.044 20.5875C236.662 19.6268 236.08 18.7584 235.337 18.0399C233.58 16.5814 231.33 15.852 229.051 16.0019H224.611V43.1079H227.502V19.2419H229.047C230.51 19.1872 231.955 19.5823 233.187 20.3739C233.689 20.7413 234.088 21.2318 234.346 21.7983C234.603 22.3648 234.711 22.988 234.657 23.6079C234.659 24.0018 234.623 24.3949 234.55 24.7819C234.495 25.081 234.396 25.3702 234.255 25.6399C234.083 25.9559 233.928 26.24 233.794 26.461C233.662 26.6606 233.501 26.8395 233.317 26.9919C233.038 27.2389 232.84 27.4099 232.717 27.5119C232.594 27.6139 232.406 27.7369 232.117 27.9299L230.948 28.7299L235.812 43.0929H238.907L234.426 29.8929Z" fill="#3B421B"/>
<path d="M135.368 64.1308C136.125 62.9152 136.516 61.5075 136.494 60.0758C136.541 59.0431 136.368 58.0121 135.986 57.0514C135.604 56.0907 135.022 55.2223 134.279 54.5038C132.522 53.0453 130.272 52.3158 127.993 52.4658H123.558V79.5718H126.449V55.7108H127.994C129.457 55.6561 130.902 56.0512 132.134 56.8428C132.636 57.2101 133.035 57.7007 133.293 58.2672C133.55 58.8336 133.658 59.4569 133.604 60.0768C133.606 60.471 133.57 60.8645 133.497 61.2518C133.441 61.5528 133.339 61.8436 133.197 62.1148C133.025 62.4318 132.87 62.7148 132.736 62.9358C132.606 63.1365 132.445 63.3157 132.259 63.4668C131.98 63.7138 131.782 63.8848 131.659 63.9868C131.536 64.0888 131.348 64.2118 131.059 64.4048L129.885 65.1988L134.755 79.5718H137.85L133.366 66.3618C134.16 65.7426 134.838 64.9872 135.368 64.1308Z" fill="#3B421B"/>
<path d="M152.374 52.032C151.062 51.9461 149.753 52.2385 148.603 52.8745C147.453 53.5105 146.509 54.4635 145.884 55.6201C144.661 57.8401 144.061 61.241 144.061 66.02C144.061 70.799 144.661 74.204 145.884 76.42C146.575 77.517 147.532 78.4209 148.667 79.0474C149.802 79.6739 151.077 80.0025 152.374 80.0025C153.67 80.0025 154.945 79.6739 156.08 79.0474C157.215 78.4209 158.172 77.517 158.863 76.42C160.091 74.2 160.687 70.794 160.687 66.02C160.687 61.246 160.087 57.8361 158.863 55.6201C158.238 54.4636 157.295 53.5108 156.145 52.8748C154.994 52.2388 153.686 51.9463 152.374 52.032ZM154.632 76.381C153.165 76.8822 151.573 76.8822 150.106 76.381C149.471 76.0752 148.931 75.6023 148.545 75.0131C147.93 74.0399 147.532 72.9463 147.376 71.8061C147.062 69.8937 146.92 67.9568 146.952 66.019C146.922 64.0813 147.064 62.1447 147.376 60.232C147.533 59.092 147.931 57.9986 148.545 57.025C148.934 56.4357 149.475 55.9629 150.111 55.657C150.833 55.3826 151.602 55.2551 152.374 55.282C153.146 55.2578 153.914 55.3852 154.637 55.657H154.642C155.277 55.9629 155.817 56.4358 156.203 57.025C156.817 57.9986 157.215 59.092 157.372 60.232C157.687 62.1444 157.829 64.0812 157.796 66.019C157.826 67.9568 157.684 69.8933 157.372 71.8061C157.215 72.9439 156.816 74.0349 156.203 75.006C155.815 75.5993 155.271 76.0748 154.632 76.381Z" fill="#3B421B"/>
<path d="M176.498 52.032C175.186 51.9462 173.878 52.2387 172.728 52.8747C171.577 53.5108 170.634 54.4636 170.009 55.62C168.781 57.84 168.185 61.241 168.185 66.02C168.185 70.799 168.785 74.199 170.009 76.42C170.7 77.5169 171.657 78.4209 172.792 79.0474C173.927 79.6739 175.202 80.0025 176.499 80.0025C177.795 80.0025 179.07 79.6739 180.205 79.0474C181.34 78.4209 182.297 77.5169 182.988 76.42C184.216 74.2 184.811 70.794 184.811 66.02C184.811 61.246 184.211 57.836 182.988 55.62C182.363 54.4635 181.419 53.5106 180.269 52.8746C179.119 52.2386 177.81 51.9461 176.498 52.032ZM178.761 76.381C177.294 76.8824 175.701 76.8824 174.234 76.381C173.599 76.0752 173.06 75.6023 172.673 75.013C172.061 74.0387 171.662 72.9457 171.504 71.806C171.19 69.8936 171.048 67.9568 171.08 66.019C171.05 64.0813 171.192 62.1447 171.504 60.232C171.66 59.0918 172.059 57.9982 172.673 57.025C173.062 56.4357 173.603 55.9629 174.239 55.657C174.961 55.3826 175.73 55.2551 176.502 55.282C177.274 55.2582 178.042 55.3856 178.765 55.657C179.4 55.9628 179.94 56.4357 180.326 57.025C180.94 57.9986 181.338 59.092 181.495 60.232C181.81 62.1444 181.952 64.0812 181.919 66.019C181.949 67.9567 181.807 69.8933 181.495 71.806C181.338 72.9438 180.939 74.0349 180.326 75.006C179.939 75.5978 179.398 76.073 178.761 76.381Z" fill="#3B421B"/>
<path d="M190.743 55.7108H197.353V79.5718H200.244V55.7108H206.857V52.4658H190.743V55.7108Z" fill="#3B421B"/>
<path d="M222.504 65.275C221.356 64.798 220.198 64.336 219.039 63.897C218.071 63.543 217.195 62.9768 216.475 62.24C216.152 61.8842 215.905 61.4673 215.746 61.014C215.587 60.5607 215.521 60.0802 215.552 59.601C215.552 56.555 216.769 55.192 219.494 55.192C220.246 55.1183 221.005 55.2299 221.705 55.517C222.404 55.8041 223.022 56.2579 223.506 56.839L224.337 57.954L226.085 55.289L225.715 54.747C224.439 52.881 222.304 51.937 219.37 51.937C218.482 51.9129 217.599 52.0697 216.774 52.3979C215.949 52.7261 215.199 53.2188 214.57 53.846C213.894 54.616 213.378 55.5127 213.052 56.4841C212.726 57.4555 212.596 58.482 212.67 59.504C212.6 61.1499 213.096 62.7701 214.075 64.095C214.937 65.2076 216.071 66.0793 217.368 66.626C218.51 67.103 219.668 67.57 220.816 68.02C221.797 68.3935 222.673 68.9991 223.369 69.785C224.037 70.587 224.376 71.6121 224.318 72.654C224.32 73.2078 224.208 73.7562 223.989 74.2647C223.769 74.7732 223.447 75.2309 223.042 75.609C222.504 76.0702 221.88 76.4205 221.207 76.6395C220.533 76.8585 219.822 76.9419 219.116 76.885C218.337 76.9558 217.552 76.8417 216.825 76.5518C216.098 76.262 215.45 75.8046 214.933 75.217L214.096 74.155L212.374 76.783L212.733 77.319C213.441 78.3198 214.447 79.0707 215.608 79.464C216.769 79.9016 217.999 80.1268 219.239 80.129C220.307 80.1953 221.378 80.0473 222.388 79.6937C223.399 79.3401 224.328 78.788 225.122 78.07C225.823 77.3489 226.369 76.4922 226.727 75.5524C227.085 74.6126 227.247 73.6096 227.203 72.605C227.273 70.9177 226.783 69.2547 225.809 67.875C224.956 66.7315 223.816 65.8344 222.504 65.275Z" fill="#3B421B"/>
</svg>
