<svg width="120" height="119" viewBox="0 0 120 119" fill="none" xmlns="http://www.w3.org/2000/svg">
<path d="M38.067 55.1109C37.5725 55.1048 37.0914 55.2712 36.7063 55.5815C36.3212 55.8918 36.0563 56.3265 35.957 56.811H40.042C39.9894 56.3301 39.7563 55.8871 39.3897 55.5715C39.0231 55.256 38.5503 55.0914 38.067 55.1109Z" fill="#04A64B"/>
<path d="M30.848 55.1111C30.3535 55.1049 29.8724 55.2713 29.4873 55.5816C29.1022 55.8919 28.8373 56.3266 28.738 56.8111H32.8231C32.7712 56.3299 32.5382 55.8865 32.1714 55.5708C31.8047 55.2551 31.3315 55.0907 30.848 55.1111Z" fill="#04A64B"/>
<path d="M30.5691 65.7011C29.987 65.7151 29.4335 65.9567 29.0274 66.374C28.6213 66.7913 28.3949 67.3511 28.3967 67.9334C28.3986 68.5157 28.6285 69.0741 29.0372 69.4889C29.4459 69.9036 30.0009 70.1417 30.5831 70.1521C30.8722 70.1664 31.161 70.1191 31.4303 70.0131C31.6996 69.9072 31.9433 69.745 32.1451 69.5376C32.3469 69.3301 32.5022 69.082 32.6007 68.8098C32.6991 68.5377 32.7384 68.2477 32.7161 67.9591C32.7407 67.6658 32.7029 67.3706 32.6052 67.093C32.5075 66.8153 32.3522 66.5615 32.1494 66.3482C31.9466 66.1349 31.7008 65.967 31.4285 65.8555C31.1561 65.7439 30.8633 65.6913 30.5691 65.7011Z" fill="#04A64B"/>
<path d="M80.1492 71.3951C75.9022 74.8171 71.9102 77.8861 68.5672 82.2261C67.4563 83.4618 66.779 85.0264 66.6382 86.6821C66.6268 86.9338 66.6654 87.1853 66.7516 87.422C66.8379 87.6588 66.9702 87.8761 67.1409 88.0615C67.3115 88.2468 67.5173 88.3966 67.7461 88.5021C67.9749 88.6076 68.2224 88.6667 68.4742 88.6761C72.1462 88.6761 76.5832 82.3561 78.1042 80.2761C79.7452 78.0321 85.4482 68.6431 86.7512 66.1161C86.7512 66.1161 86.7512 66.1071 86.7422 66.1161C86.4972 66.3691 81.5682 70.2541 80.1492 71.3951Z" fill="#04A64B"/>
<path d="M44.9658 65.7012C44.375 65.7287 43.8175 65.9828 43.4091 66.4107C43.0008 66.8385 42.7729 67.4072 42.7729 67.9987C42.7729 68.5901 43.0008 69.1588 43.4091 69.5866C43.8175 70.0145 44.375 70.2686 44.9658 70.2961C45.5566 70.2686 46.114 70.0145 46.5223 69.5866C46.9307 69.1588 47.1585 68.5901 47.1585 67.9987C47.1585 67.4072 46.9307 66.8385 46.5223 66.4107C46.114 65.9828 45.5566 65.7287 44.9658 65.7012Z" fill="#04A64B"/>
<path d="M65.9841 65.613C65.4896 65.6069 65.0084 65.7733 64.6233 66.0835C64.2382 66.3938 63.9733 66.8285 63.874 67.313H67.959C67.9056 66.8325 67.6722 66.3901 67.3058 66.0747C66.9394 65.7593 66.4672 65.5944 65.9841 65.613Z" fill="#04A64B"/>
<path d="M60.068 0.227051C48.3693 0.227051 36.9332 3.69613 27.206 10.1956C17.4789 16.6951 9.89746 25.9331 5.42054 36.7413C0.943614 47.5496 -0.227776 59.4427 2.05454 70.9167C4.33686 82.3906 9.97034 92.9301 18.2426 101.202C26.5149 109.475 37.0544 115.108 48.5284 117.391C60.0024 119.673 71.8955 118.501 82.7037 114.025C93.512 109.548 102.75 101.966 109.249 92.239C115.749 82.5119 119.218 71.0758 119.218 59.377C119.218 43.6895 112.986 28.6445 101.893 17.5517C90.8006 6.45892 75.7556 0.227051 60.068 0.227051ZM42.356 56.8541C42.332 56.5054 42.38 56.1556 42.497 55.8263C42.6139 55.4969 42.7973 55.1952 43.0358 54.9398C43.2743 54.6843 43.5628 54.4806 43.8833 54.3414C44.2038 54.2021 44.5496 54.1303 44.899 54.1303C45.2485 54.1303 45.5942 54.2021 45.9147 54.3414C46.2352 54.4806 46.5237 54.6843 46.7622 54.9398C47.0007 55.1952 47.1841 55.4969 47.3011 55.8263C47.418 56.1556 47.466 56.5054 47.442 56.8541V60.7211H46.32V56.8911C46.32 55.7911 45.82 55.1991 44.906 55.1991C43.992 55.1991 43.478 55.7991 43.478 56.8911V60.7211H42.356V56.8541ZM19.556 71.3201C19.0259 71.317 18.4963 71.2836 17.97 71.2201V70.1121C18.642 70.1721 19.129 70.1951 19.533 70.1951C20.789 70.1951 21.411 69.7451 21.411 68.8271C21.411 68.2201 21.119 67.7791 20.311 67.2641L19.347 66.657C18.9363 66.4436 18.59 66.1244 18.3438 65.7324C18.0977 65.3404 17.9607 64.8897 17.947 64.4271C17.947 63.0271 18.986 62.183 20.752 62.183C21.1726 62.1909 21.5924 62.2243 22.009 62.2831V63.347C21.6052 63.2881 21.198 63.2547 20.79 63.2471C19.69 63.2471 19.13 63.6471 19.13 64.4061C19.13 64.9301 19.408 65.3191 20.104 65.7601L20.98 66.3071C21.4533 66.5389 21.8546 66.8954 22.1405 67.3381C22.4265 67.7809 22.5864 68.2932 22.603 68.8201C22.604 70.4071 21.481 71.321 19.553 71.321L19.556 71.3201ZM23.316 56.2201C23.316 59.1091 21.475 60.8661 18.99 60.8661C17.7781 60.8455 16.6229 60.3488 15.7742 59.4834C14.9255 58.618 14.4515 57.4533 14.4545 56.2412C14.4575 55.0291 14.9373 53.8669 15.7903 53.0057C16.6434 52.1445 17.801 51.6536 19.013 51.6391C19.6561 51.626 20.2948 51.7485 20.8874 51.9985C21.4801 52.2485 22.0135 52.6204 22.453 53.0901L21.614 53.929C21.2906 53.5582 20.8908 53.2618 20.442 53.0602C19.9931 52.8586 19.506 52.7565 19.014 52.761C18.0858 52.758 17.1943 53.1238 16.5358 53.778C15.8772 54.4323 15.5056 55.3213 15.5025 56.2496C15.4995 57.1778 15.8653 58.0693 16.5195 58.7278C17.1737 59.3863 18.0627 59.758 18.991 59.761C19.3877 59.7755 19.7834 59.7104 20.1545 59.5695C20.5257 59.4287 20.865 59.215 21.1523 58.941C21.4396 58.667 21.6692 58.3383 21.8275 57.9742C21.9858 57.6101 22.0696 57.218 22.074 56.821H18.708V55.7591H23.317V56.2231L23.316 56.2201ZM25.667 71.2201H24.545V64.787H25.667V71.2201ZM25.667 63.6251H24.545V62.188H25.667V63.6251ZM25.667 56.2901V60.718H24.545V56.3071C24.545 54.9161 25.203 54.2851 26.534 54.2851H27.253V55.3101H26.632C25.947 55.3061 25.668 55.5611 25.668 56.2931L25.667 56.2901ZM33.749 70.5481C33.749 72.5231 32.543 73.6311 30.225 73.6311H28.945V72.606H30.262C31.848 72.606 32.627 71.9851 32.65 70.6311V70.1471C32.3928 70.4796 32.0591 70.7452 31.6773 70.9212C31.2955 71.0972 30.8769 71.1785 30.457 71.1581C29.6087 71.141 28.8007 70.7929 28.2055 70.1883C27.6103 69.5836 27.2751 68.7702 27.2715 67.9217C27.2678 67.0733 27.596 66.257 28.1859 65.6472C28.7759 65.0374 29.5809 64.6824 30.429 64.6581C30.8715 64.6402 31.3117 64.7312 31.7109 64.923C32.1101 65.1147 32.4563 65.4015 32.719 65.7581L32.733 64.7841H33.744V70.5471L33.749 70.5481ZM30.944 59.8481C31.3854 59.8521 31.8199 59.7392 32.2035 59.5209C32.5871 59.3026 32.9061 58.9866 33.128 58.6051L33.907 59.1801C33.597 59.6909 33.1596 60.1124 32.6378 60.4034C32.1159 60.6944 31.5275 60.8448 30.93 60.8401C30.0599 60.8255 29.2298 60.4721 28.6162 59.8549C28.0026 59.2378 27.6538 58.4057 27.6442 57.5356C27.6346 56.6654 27.9648 55.8257 28.5646 55.1952C29.1643 54.5646 29.9864 54.1929 30.856 54.1591C32.488 54.1591 33.956 55.2671 33.916 57.6461H28.678C28.6768 57.9414 28.735 58.2339 28.8493 58.5062C28.9635 58.7785 29.1314 59.025 29.343 59.2311C29.5545 59.4371 29.8054 59.5985 30.0807 59.7055C30.3559 59.8125 30.6498 59.8631 30.945 59.8541L30.944 59.8481ZM40.533 71.2171H39.411V67.3871C39.411 66.2871 38.911 65.6951 37.997 65.6951C37.083 65.6951 36.569 66.2951 36.569 67.3871V71.2171H35.447V67.3501C35.423 67.0014 35.471 66.6516 35.588 66.3223C35.7049 65.993 35.8883 65.6912 36.1268 65.4358C36.3653 65.1803 36.6538 64.9766 36.9743 64.8374C37.2948 64.6981 37.6406 64.6263 37.99 64.6263C38.3395 64.6263 38.6852 64.6981 39.0057 64.8374C39.3262 64.9766 39.6147 65.1803 39.8532 65.4358C40.0917 65.6912 40.2751 65.993 40.3921 66.3223C40.509 66.6516 40.557 67.0014 40.533 67.3501V71.2171ZM38.164 59.8481C38.6053 59.8521 39.0399 59.7392 39.4235 59.5209C39.8071 59.3026 40.1261 58.9866 40.348 58.6051L41.127 59.1801C40.817 59.6909 40.3797 60.1124 39.8578 60.4034C39.336 60.6944 38.7475 60.8448 38.15 60.8401C37.2799 60.8255 36.4498 60.4721 35.8362 59.8549C35.2226 59.2378 34.8739 58.4057 34.8642 57.5356C34.8546 56.6654 35.1847 55.8257 35.7845 55.1952C36.3843 54.5646 37.2064 54.1929 38.076 54.1591C39.708 54.1591 41.176 55.2671 41.136 57.6461H35.888C35.8867 57.9421 35.9453 58.2354 36.0601 58.5084C36.1749 58.7813 36.3436 59.0282 36.5561 59.2344C36.7686 59.4406 37.0206 59.6017 37.2968 59.7082C37.5731 59.8147 37.8681 59.8643 38.164 59.8541V59.8481ZM48.147 71.2171H47.136L47.122 70.2431C46.8607 70.5989 46.5161 70.8853 46.1184 71.0771C45.7208 71.2688 45.2821 71.3602 44.841 71.343C43.982 71.3037 43.1713 70.9348 42.5773 70.313C41.9833 69.6912 41.6519 68.8644 41.6519 68.0045C41.6519 67.1447 41.9833 66.3179 42.5773 65.6961C43.1713 65.0743 43.982 64.7054 44.841 64.666C45.2821 64.6489 45.7208 64.7403 46.1184 64.932C46.5161 65.1238 46.8607 65.4102 47.122 65.7661L47.136 64.7921H48.147V71.2171ZM51.968 65.8011H51.138V71.2121H50.016V65.8011H49.237V64.7761H50.016V62.9961L51.138 62.5831V64.7761H51.968V65.8011ZM58.168 68.6431C58.192 68.9917 58.144 69.3416 58.027 69.6709C57.9101 70.0002 57.7267 70.3019 57.4882 70.5574C57.2497 70.8128 56.9612 71.0165 56.6407 71.1557C56.3202 71.295 55.9744 71.3669 55.625 71.3669C55.2755 71.3669 54.9298 71.295 54.6093 71.1557C54.2888 71.0165 54.0003 70.8128 53.7618 70.5574C53.5233 70.3019 53.3399 70.0002 53.2229 69.6709C53.106 69.3416 53.058 68.9917 53.082 68.6431V64.7761H54.204V68.606C54.204 69.706 54.704 70.2981 55.618 70.2981C56.532 70.2981 57.046 69.6981 57.046 68.606V64.7761H58.168V68.6431ZM59.48 71.2161V66.8021C59.48 65.4111 60.138 64.7761 61.469 64.7761H62.188V65.8011H61.567C60.885 65.8011 60.603 66.0561 60.603 66.7891V71.2171L59.48 71.2161ZM105.364 55.1451C104.427 55.738 94.004 61.9981 91.273 63.6391C90.8432 63.8976 90.4933 64.27 90.262 64.7151C89.812 65.5821 89.024 67.1311 88.407 68.494C84.93 76.163 81.183 83.9431 75.151 89.8181C73.492 91.5859 71.435 92.9322 69.151 93.7451C68.0061 94.1377 66.7803 94.2336 65.5883 94.0237C64.3963 93.8139 63.277 93.3051 62.335 92.545C61.454 91.6361 60.8254 90.5131 60.5115 89.2868C60.1976 88.0605 60.2091 86.7735 60.545 85.5531C61.227 82.6461 63.165 80.1981 65.274 78.0791C70.249 73.0791 76.495 69.631 82.685 66.209C83.344 65.843 83.807 65.592 84.363 65.282C85.022 64.911 85.42 64.6881 85.963 64.3961C86.58 64.0581 86.992 63.8261 87.785 63.3851C88.0077 63.2331 88.2037 63.0452 88.365 62.8291C88.8959 62.153 89.2998 61.3863 89.557 60.5661C89.882 59.7271 90.596 56.9911 90.712 56.5001C90.828 56.0091 91.027 54.9931 89.678 55.7211C86.678 57.3351 75.754 64.0211 65.535 61.6511C63.5537 61.19 61.8034 60.0337 60.602 58.3921C57.653 54.1921 58.423 48.3121 60.43 43.8751C64.566 34.7271 73.742 26.2191 84.165 24.7811C88.5 24.1811 93.415 25.5371 92.381 30.9431C92.0529 32.4254 91.4369 33.829 90.568 35.0741C88.296 38.5421 85.068 41.2551 81.888 43.9111C84.7579 40.8526 87.2032 37.4218 89.158 33.7111C89.6265 32.8337 89.9315 31.8785 90.058 30.8921C90.1177 30.3978 90.0712 29.8964 89.9217 29.4215C89.7722 28.9466 89.5231 28.509 89.191 28.1381C88.4604 27.4895 87.516 27.1334 86.539 27.1381C79.89 26.7951 72.68 33.7271 69.064 38.6601C65.999 42.8381 62.253 48.6101 64.418 53.8681C64.7273 54.6353 65.156 55.3487 65.688 55.9821C66.8011 57.2315 68.3017 58.0707 69.949 58.3651C72.2397 58.735 74.5815 58.6388 76.834 58.0821C78.4545 57.7251 80.0486 57.2573 81.605 56.6821C84.6465 55.4998 87.6242 54.1597 90.526 52.6671C90.89 52.4435 91.3024 52.3107 91.7285 52.2801C92.1546 52.2495 92.5817 52.3218 92.974 52.4911C93.994 53.0751 93.725 54.4011 93.456 55.3331C92.8936 57.384 92.1775 59.3896 91.314 61.3331L104.167 54.2671C104.488 54.0342 104.887 53.9346 105.28 53.989C105.406 54.023 105.517 54.0979 105.596 54.202C105.675 54.3061 105.717 54.4334 105.716 54.5641C105.71 54.6832 105.676 54.7991 105.615 54.9018C105.554 55.0045 105.47 55.0907 105.368 55.153L105.364 55.1451ZM66.078 70.3451C66.5193 70.3491 66.9539 70.2362 67.3375 70.0179C67.7211 69.7996 68.0401 69.4836 68.262 69.1021L69.041 69.6771C68.731 70.1879 68.2937 70.6094 67.7718 70.9004C67.25 71.1914 66.6615 71.3419 66.064 71.3371C65.1939 71.3225 64.3638 70.9691 63.7502 70.352C63.1366 69.7349 62.7879 68.9027 62.7782 68.0325C62.7686 67.1623 63.0987 66.3227 63.6985 65.6922C64.2983 65.0616 65.1204 64.6899 65.99 64.6561C67.622 64.6561 69.09 65.7641 69.05 68.1431H63.806C63.8041 68.4395 63.8621 68.7332 63.9765 69.0067C64.091 69.2801 64.2595 69.5276 64.472 69.7343C64.6844 69.941 64.9365 70.1026 65.213 70.2095C65.4895 70.3163 65.7848 70.3662 66.081 70.356L66.078 70.3451ZM81.996 44.8571C82.223 44.7831 82.696 44.6761 82.696 44.6761C82.8303 45.1992 82.8303 45.7479 82.696 46.2711C82.4491 47.0276 81.9843 47.6944 81.3598 48.1877C80.7354 48.681 79.9791 48.9789 79.186 49.0441C78.7573 49.0934 78.3241 49.087 77.897 49.0251C76.437 48.7756 75.05 48.2071 73.835 47.36C74.0501 47.4267 74.2794 47.4333 74.498 47.3791C74.7449 47.3368 74.9801 47.2427 75.188 47.1029C75.3959 46.9631 75.5717 46.7808 75.704 46.5681C75.9292 46.1159 76.1214 45.648 76.279 45.1681C76.5239 44.5202 76.9308 43.9459 77.461 43.5002C77.9911 43.0544 78.6267 42.7521 79.307 42.6221C79.3401 42.6166 79.3735 42.6136 79.407 42.6131C80.1188 42.5442 80.8335 42.7103 81.442 43.0861C81.3345 43.3023 81.2105 43.5099 81.071 43.7071C80.6456 44.333 80.1415 44.9017 79.571 45.399C78.8493 46.0556 78.0294 46.5955 77.141 46.9991C78.588 46.7421 80.302 45.411 81.999 44.869L81.996 44.8571Z" fill="#04A64B"/>
<path d="M107.807 10.2011H105.901V8.89307H111.117V10.2011H109.211V16.8361H107.811L107.807 10.2011Z" fill="#04A64B"/>
<path d="M112.156 8.89307H113.575L116.097 13.2651L118.605 8.89307H120.005V16.8361H118.665V11.2951L116.523 15.0511H115.656L113.491 11.2861V16.8361H112.156V8.89307Z" fill="#04A64B"/>
</svg>
