<svg width="30" height="29" viewBox="0 0 30 29" fill="none" xmlns="http://www.w3.org/2000/svg">
<path d="M20.721 28.9997H8.451C6.25019 28.9982 4.13998 28.1232 2.58377 26.567C1.02756 25.0108 0.15259 22.9006 0.151001 20.6997V8.43574C0.15259 6.23493 1.02756 4.12472 2.58377 2.56851C4.13998 1.0123 6.25019 0.137331 8.451 0.135742L20.721 0.135742C22.9218 0.137331 25.032 1.0123 26.5882 2.56851C28.1444 4.12472 29.0194 6.23493 29.021 8.43574V20.7057C29.0194 22.9066 28.1444 25.0168 26.5882 26.573C25.032 28.1292 22.9218 29.0042 20.721 29.0057M8.451 1.22674C6.53981 1.2286 4.70745 1.98877 3.35622 3.34038C2.00499 4.69198 1.24533 6.52455 1.244 8.43574V20.7057C1.24638 22.6162 2.00635 24.4477 3.35722 25.7985C4.70809 27.1494 6.53958 27.9094 8.45 27.9117H20.72C22.6304 27.9094 24.4619 27.1494 25.8128 25.7985C27.1637 24.4477 27.9236 22.6162 27.926 20.7057V8.43574C27.9239 6.52524 27.164 4.6936 25.8131 3.34267C24.4621 1.99174 22.6305 1.23186 20.72 1.22974L8.451 1.22674Z" fill="#B19B8C"/>
<path d="M18.455 8.22938C18.0939 8.16845 17.7282 8.13901 17.362 8.14138C15.3347 8.14138 14.3203 9.41105 14.319 11.9504V13.3964H19.576V14.7244H14.319V28.4544H12.875V14.7254H10.688V13.3974H12.875V11.9204C12.7856 10.5579 13.2062 9.21091 14.055 8.14138C14.4748 7.69091 14.9886 7.3384 15.56 7.10889C16.1313 6.87937 16.7462 6.77848 17.361 6.81338C17.7661 6.80955 18.1707 6.83898 18.571 6.90138C18.9225 6.96047 19.2684 7.04911 19.605 7.16638V8.52638C19.2283 8.40139 18.8438 8.30118 18.454 8.22638" fill="#B19B8C"/>
</svg>
