<svg width="254" height="184" viewBox="0 0 254 184" fill="none" xmlns="http://www.w3.org/2000/svg">
<path d="M253.215 128.222C253.226 129.019 253.08 129.809 252.786 130.549C252.515 131.226 252.107 131.839 251.586 132.349C251.047 132.853 250.416 133.248 249.728 133.513C248.976 133.789 248.181 133.928 247.38 133.921C246.548 133.938 245.722 133.785 244.951 133.472C244.259 133.186 243.629 132.77 243.093 132.247C242.581 131.731 242.184 131.112 241.929 130.43C241.659 129.728 241.521 128.983 241.521 128.23C241.52 127.47 241.659 126.716 241.929 126.005C242.184 125.324 242.581 124.705 243.093 124.188C243.625 123.661 244.257 123.245 244.951 122.963C245.722 122.651 246.548 122.498 247.38 122.514C248.181 122.508 248.976 122.646 249.728 122.922C250.422 123.177 251.055 123.573 251.586 124.086C252.107 124.597 252.515 125.21 252.786 125.886C253.077 126.63 253.223 127.423 253.215 128.222ZM247.601 129.222H245.968V131.386H244.743V124.996H248.193C248.589 124.988 248.983 125.05 249.357 125.18C249.651 125.286 249.922 125.445 250.157 125.65C250.355 125.847 250.508 126.083 250.606 126.344C250.703 126.6 250.752 126.871 250.749 127.144C250.746 127.359 250.712 127.572 250.649 127.777C250.577 127.993 250.466 128.193 250.322 128.369C250.173 128.562 249.985 128.722 249.771 128.839C249.52 128.975 249.251 129.071 248.971 129.125L251.033 131.371C251.404 130.944 251.694 130.453 251.89 129.922C252.285 128.769 252.27 127.515 251.849 126.37C251.644 125.818 251.332 125.311 250.93 124.88C250.511 124.438 250.003 124.09 249.44 123.859C248.144 123.369 246.714 123.369 245.418 123.859C244.855 124.09 244.347 124.438 243.928 124.88C243.513 125.305 243.193 125.813 242.989 126.37C242.765 126.95 242.654 127.566 242.662 128.187C242.654 128.803 242.765 129.414 242.989 129.987C243.201 130.55 243.526 131.062 243.944 131.494C244.361 131.926 244.863 132.268 245.418 132.498C246.054 132.753 246.734 132.877 247.418 132.865C248.139 132.876 248.854 132.737 249.518 132.457C250.099 132.211 250.616 131.834 251.029 131.357H249.498L247.601 129.222ZM245.948 126.078V128.221H248.028C248.264 128.234 248.5 128.2 248.722 128.121C248.886 128.069 249.038 127.986 249.171 127.876C249.282 127.793 249.367 127.68 249.416 127.549C249.472 127.435 249.5 127.31 249.498 127.182C249.501 127.037 249.48 126.892 249.437 126.753C249.389 126.622 249.312 126.504 249.212 126.406C249.082 126.293 248.929 126.209 248.763 126.161C248.531 126.098 248.29 126.07 248.049 126.079L245.948 126.078Z" fill="#775137"/>
<path d="M0 135.488V160.781H3.552V149.799L3.98099 149.922C4.38899 148.656 4.93999 148.493 5.36899 148.493C6.13639 148.599 6.87339 148.863 7.53299 149.269C8.30186 149.741 9.16681 150.034 10.064 150.126C11.003 150.126 11.697 149.534 12.146 148.391L13.555 144.716L11.412 148.003C11.3084 148.2 11.1528 148.365 10.9621 148.481C10.7713 148.596 10.5527 148.656 10.33 148.656C9.54996 148.542 8.80145 148.269 8.13 147.856C7.34632 147.381 6.46879 147.081 5.55801 146.978C5.10737 146.996 4.67317 147.152 4.31506 147.426C3.95696 147.7 3.69252 148.079 3.55801 148.509V136.858H6.23199C10.764 136.858 13.091 137.777 13.332 138.246C13.3901 138.352 13.4759 138.44 13.5801 138.501C13.6843 138.562 13.8032 138.594 13.924 138.593L14.496 138.675L13.965 135.47H0V135.488Z" fill="#775137"/>
<path d="M30.519 134.958C21.843 134.958 17.903 141.776 17.903 148.125C17.903 157.168 24.436 161.292 30.519 161.292C39.219 161.292 43.176 154.474 43.176 148.125C43.153 141.776 39.215 134.958 30.519 134.958ZM39.542 150.248C39.542 154.8 37.562 159.659 32.03 159.659C25.538 159.659 21.517 152.559 21.517 145.959C21.517 141.427 23.477 136.589 29.009 136.589C35.52 136.591 39.542 143.675 39.542 150.248Z" fill="#775137"/>
<path d="M59.527 134.958C50.851 134.958 46.911 141.776 46.911 148.125C46.911 157.168 53.444 161.292 59.527 161.292C68.227 161.292 72.184 154.474 72.184 148.125C72.184 141.776 68.223 134.958 59.527 134.958ZM68.55 150.248C68.55 154.8 66.57 159.659 61.038 159.659C54.546 159.659 50.525 152.559 50.525 145.959C50.525 141.427 52.485 136.589 58.017 136.589C64.528 136.591 68.551 143.675 68.551 150.248H68.55Z" fill="#775137"/>
<path d="M83.6161 135.489H76.9611V160.782H83.6161C86.9506 160.753 90.1386 159.407 92.4861 157.039C94.8335 154.67 96.1506 151.47 96.1506 148.136C96.1506 144.801 94.8335 141.601 92.4861 139.233C90.1386 136.864 86.9506 135.519 83.6161 135.489ZM80.493 136.857H83.4731C88.4541 136.857 92.4961 141.899 92.4961 148.105C92.4961 154.311 88.4541 159.353 83.4731 159.353H80.493V136.857Z" fill="#775137"/>
<path d="M108.786 135.488V160.781H112.338V149.799L112.767 149.922C113.175 148.656 113.726 148.493 114.155 148.493C114.922 148.599 115.659 148.863 116.319 149.269C117.088 149.741 117.953 150.034 118.85 150.126C119.789 150.126 120.483 149.534 120.932 148.391L122.341 144.716L120.198 148.003C120.094 148.2 119.939 148.365 119.748 148.481C119.557 148.596 119.339 148.656 119.116 148.656C118.336 148.542 117.587 148.269 116.916 147.856C116.132 147.381 115.255 147.081 114.344 146.978C113.893 146.996 113.459 147.152 113.101 147.426C112.743 147.7 112.478 148.079 112.344 148.509V136.858H115.016C119.548 136.858 121.875 137.777 122.116 138.246C122.174 138.352 122.26 138.44 122.364 138.501C122.468 138.562 122.587 138.594 122.708 138.593L123.28 138.675L122.749 135.47H108.786V135.488Z" fill="#775137"/>
<path d="M139.326 134.958C130.65 134.958 126.71 141.776 126.71 148.125C126.71 157.168 133.243 161.292 139.326 161.292C148.026 161.292 151.983 154.474 151.983 148.125C151.96 141.776 148.002 134.958 139.326 134.958ZM148.349 150.248C148.349 154.8 146.369 159.659 140.837 159.659C134.345 159.659 130.324 152.559 130.324 145.959C130.324 141.427 132.284 136.589 137.816 136.589C144.307 136.591 148.349 143.675 148.349 150.248Z" fill="#775137"/>
<path d="M171.947 155.969C171.008 153.478 169.865 150.457 167.333 149.151C168.637 148.675 169.759 147.803 170.543 146.657C171.326 145.511 171.732 144.149 171.702 142.761C171.702 139.148 168.967 135.494 162.883 135.494H156.8V160.787H160.352V148.227C161.502 148.825 162.744 149.225 164.026 149.411C165.741 149.983 166.537 152.311 167.394 154.759C168.494 157.923 169.64 161.169 172.947 161.169C173.678 161.144 174.401 161.006 175.09 160.761L174.906 159.961C173.601 160.129 172.927 158.557 171.947 155.969ZM160.372 136.902L162.172 136.882C162.946 136.851 163.718 136.979 164.44 137.259C165.162 137.538 165.819 137.963 166.37 138.507C166.921 139.05 167.355 139.702 167.644 140.42C167.933 141.138 168.072 141.908 168.051 142.682C168.088 143.35 167.986 144.018 167.752 144.644C167.518 145.271 167.156 145.842 166.69 146.321C166.224 146.8 165.663 147.178 165.043 147.429C164.424 147.681 163.759 147.801 163.09 147.782C162.172 147.78 161.26 147.621 160.395 147.312L160.354 147.412V136.898L160.372 136.902Z" fill="#775137"/>
<path d="M193.44 157.719C193.318 157.984 191.44 159.373 186.009 159.373H182.54V149.125L182.867 149.207C183.275 147.941 183.826 147.778 184.255 147.778C185.017 147.894 185.747 148.166 186.398 148.578C187.179 149.063 188.057 149.37 188.97 149.478C189.889 149.478 190.583 148.886 191.011 147.743L192.42 144.069L190.277 147.376C190.166 147.571 190.006 147.734 189.813 147.848C189.621 147.963 189.401 148.025 189.177 148.029C188.377 147.926 187.606 147.662 186.911 147.253C186.134 146.802 185.273 146.517 184.38 146.416C183.989 146.408 183.604 146.518 183.276 146.732C182.948 146.946 182.693 147.254 182.543 147.616V136.858H185.217C189.769 136.858 192.097 137.736 192.317 138.185C192.375 138.291 192.461 138.379 192.565 138.44C192.669 138.501 192.788 138.533 192.909 138.532L193.46 138.614L192.95 135.47H179.01V160.758H193.565L194.627 157.349H194.055C193.927 157.339 193.798 157.369 193.688 157.435C193.578 157.502 193.491 157.601 193.44 157.719Z" fill="#775137"/>
<path d="M207.549 145.859C204.283 144.675 201.466 143.675 201.466 141.041C201.466 138.306 204.344 136.672 207.141 136.672C208.608 136.607 210.047 137.088 211.179 138.024C212.311 138.959 213.055 140.282 213.267 141.735L213.941 145.797L214.084 141.697C214.122 140.919 213.999 140.142 213.721 139.415C213.444 138.687 213.018 138.025 212.471 137.471C210.734 135.839 208.423 134.959 206.041 135.021C202.241 135.021 198.406 137.144 198.406 141.9C198.406 146.861 202.775 148.739 206.612 150.392C209.858 151.78 212.655 152.985 212.655 155.638C212.655 158.516 209.328 160.007 206.02 160.007C204.967 160.056 203.915 159.893 202.926 159.529C201.938 159.164 201.032 158.605 200.263 157.884C199.803 157.37 199.458 156.764 199.251 156.105C199.044 155.447 198.98 154.752 199.063 154.067L198.246 153.945C198.142 154.387 198.087 154.838 198.083 155.292C198.083 159.392 202.635 161.62 206.902 161.62C211.454 161.62 216.047 159.313 216.047 154.189C216.082 148.921 211.55 147.288 207.549 145.859Z" fill="#775137"/>
<path d="M237.537 135.489H220.451L219.328 139.489H219.879C219.988 139.496 220.097 139.473 220.194 139.422C220.291 139.372 220.372 139.296 220.43 139.203C220.552 139.06 220.675 138.897 220.777 138.754C221.451 137.835 222.145 136.876 227.085 136.876H227.228V160.776H230.76V136.876H230.882C236.088 136.876 236.965 138.305 237.394 138.976C237.43 139.046 237.471 139.112 237.516 139.176C237.575 139.274 237.659 139.355 237.76 139.409C237.86 139.463 237.974 139.488 238.088 139.482H238.639L237.537 135.489Z" fill="#775137"/>
<path d="M162.143 38.0531H153.181L119.294 4.18616L85.427 38.0531H76.486C76.1232 38.0531 75.7753 37.909 75.5187 37.6525C75.2622 37.3959 75.118 37.048 75.118 36.6852C75.118 36.3223 75.2622 35.9744 75.5187 35.7178C75.7753 35.4613 76.1232 35.3172 76.486 35.3172H84.286L119.276 0.327148L154.266 35.3172H162.105C162.468 35.3172 162.816 35.4613 163.072 35.7178C163.329 35.9744 163.473 36.3223 163.473 36.6852C163.479 36.8633 163.45 37.0409 163.385 37.2072C163.321 37.3736 163.224 37.5252 163.1 37.653C162.976 37.7808 162.827 37.8822 162.662 37.9509C162.498 38.0197 162.321 38.0545 162.143 38.0531Z" fill="#775137"/>
<path d="M162.143 48.9552H148.654L119.299 19.6002L89.9431 48.9552H76.4911C76.1282 48.9552 75.7803 48.8111 75.5237 48.5545C75.2672 48.298 75.123 47.95 75.123 47.5872C75.123 47.2244 75.2672 46.8764 75.5237 46.6199C75.7803 46.3633 76.1282 46.2192 76.4911 46.2192H88.8211L119.299 15.7412L149.777 46.2192H162.127C162.49 46.2192 162.838 46.3633 163.094 46.6199C163.351 46.8764 163.495 47.2244 163.495 47.5872C163.497 47.7661 163.464 47.9437 163.397 48.1097C163.33 48.2756 163.231 48.4266 163.105 48.5539C162.979 48.6811 162.829 48.7821 162.664 48.851C162.499 48.9199 162.322 48.9553 162.143 48.9552Z" fill="#775137"/>
<path d="M141.754 102.909C138.838 102.907 136.004 101.944 133.69 100.169C131.376 98.3943 129.712 95.9063 128.954 93.0903L126.994 85.7823L134.302 83.8223C135.983 83.3715 137.736 83.2563 139.462 83.4833C141.187 83.7102 142.851 84.2749 144.358 85.1451C145.865 86.0152 147.186 87.1738 148.245 88.5545C149.304 89.9353 150.081 91.5112 150.531 93.1923L152.491 100.5L145.183 102.46C144.064 102.757 142.912 102.908 141.754 102.909ZM130.322 87.7213L131.567 92.3963C132.295 95.0916 134.061 97.3888 136.479 98.7852C138.896 100.182 141.769 100.563 144.467 99.8473L149.142 98.6023L147.897 93.9273C147.169 91.2319 145.403 88.9348 142.986 87.5384C140.568 86.142 137.696 85.7601 134.997 86.4763L130.322 87.7213Z" fill="#775137"/>
<path d="M138.835 100.868L136.12 100.827L136.304 91.1714L144.572 86.1904L145.981 88.5174L138.999 92.7224L138.835 100.868Z" fill="#775137"/>
<path d="M137.732 79.3312C136.567 79.3328 135.408 79.1818 134.282 78.8822L126.974 76.9222L128.934 69.6142C129.85 66.2192 132.076 63.3261 135.122 61.5695C138.168 59.8129 141.787 59.3363 145.184 60.2442L152.492 62.2042L150.532 69.5122C149.773 72.3272 148.108 74.8139 145.794 76.5885C143.481 78.3631 140.648 79.3269 137.732 79.3312ZM130.322 74.9832L134.994 76.2282C137.69 76.9453 140.561 76.5635 142.976 75.1666C145.39 73.7697 147.153 71.4718 147.875 68.7772L149.12 64.1022L144.445 62.8572C141.749 62.1401 138.879 62.5219 136.464 63.9188C134.049 65.3157 132.287 67.6136 131.564 70.3082L130.322 74.9832Z" fill="#775137"/>
<path d="M144.57 76.5339L136.302 71.5339L136.118 61.8989L138.833 61.8379L138.996 69.9829L145.978 74.1879L144.57 76.5339Z" fill="#775137"/>
<path d="M119.299 72.4922L113.951 67.1442C111.471 64.6566 110.078 61.2871 110.078 57.7742C110.078 54.2613 111.471 50.8917 113.951 48.4042L119.299 43.0562L124.647 48.4042C127.128 50.8917 128.521 54.2613 128.521 57.7742C128.521 61.2871 127.128 64.6566 124.647 67.1442L119.299 72.4922ZM119.299 46.9132L115.89 50.3222C113.919 52.2971 112.812 54.9731 112.812 57.7632C112.812 60.5532 113.919 63.2293 115.89 65.2042L119.299 68.6132L122.708 65.2042C124.679 63.2293 125.786 60.5532 125.786 57.7632C125.786 54.9731 124.679 52.2971 122.708 50.3222L119.299 46.9132Z" fill="#775137"/>
<path d="M119.299 61.7144L110.848 57.0604L112.175 54.6724L119.299 58.6124L126.444 54.6724L127.75 57.0604L119.299 61.7144Z" fill="#775137"/>
<path d="M100.885 79.3311C97.969 79.329 95.1347 78.366 92.8209 76.5911C90.5071 74.8162 88.8427 72.3282 88.0851 69.5121L86.1251 62.2042L93.4331 60.2441C95.114 59.7934 96.8672 59.6782 98.5926 59.9052C100.318 60.1321 101.982 60.6968 103.489 61.5669C104.996 62.4371 106.317 63.5956 107.376 64.9764C108.435 66.3571 109.212 67.9331 109.662 69.6141L111.622 76.9222L104.314 78.8821C103.196 79.1816 102.043 79.3326 100.885 79.3311ZM89.4741 64.1231L90.7191 68.7982C91.4471 71.4935 93.2131 73.7907 95.6307 75.1871C98.0483 76.5835 100.921 76.9654 103.619 76.2491L108.294 75.0042L107.049 70.3292C106.321 67.6338 104.555 65.3366 102.138 63.9402C99.7199 62.5438 96.8476 62.1619 94.1491 62.8781L89.4741 64.1231Z" fill="#775137"/>
<path d="M94.0471 76.5339L92.6381 74.1859L99.5991 69.981L99.7621 61.8359L102.497 61.8969L102.297 71.532L94.0471 76.5339Z" fill="#775137"/>
<path d="M96.8841 102.929C95.7194 102.931 94.5596 102.78 93.4341 102.48L86.1261 100.52L88.0861 93.2121C89.0022 89.8173 91.2274 86.9244 94.2735 85.1678C97.3196 83.4113 100.938 82.9345 104.335 83.8421L111.643 85.8021L109.683 93.1101C109.241 94.7956 108.466 96.3756 107.404 97.7569C106.342 99.1383 105.014 100.293 103.498 101.153C101.486 102.311 99.2058 102.923 96.8841 102.929ZM89.4741 98.5811L94.1491 99.8261C96.8452 100.543 99.7158 100.162 102.131 98.7649C104.546 97.3679 106.308 95.0699 107.03 92.3751L108.275 87.7001L103.6 86.4551C100.904 85.738 98.0336 86.1198 95.6187 87.5167C93.2037 88.9136 91.4417 91.2115 90.7191 93.9061L89.4741 98.5811Z" fill="#775137"/>
<path d="M99.7621 100.868L99.5991 92.7234L92.6381 88.5204L94.0471 86.1934L102.294 91.1743L102.494 100.83L99.7621 100.868Z" fill="#775137"/>
<path d="M119.299 119.648L113.951 114.3C111.471 111.812 110.078 108.443 110.078 104.93C110.078 101.417 111.471 98.0475 113.951 95.5599L119.299 90.2119L124.647 95.5599C127.128 98.0475 128.521 101.417 128.521 104.93C128.521 108.443 127.128 111.812 124.647 114.3L119.299 119.648ZM119.299 94.0689L115.89 97.4779C113.919 99.4528 112.812 102.129 112.812 104.919C112.812 107.709 113.919 110.385 115.89 112.36L119.299 115.769L122.708 112.36C124.679 110.385 125.786 107.709 125.786 104.919C125.786 102.129 124.679 99.4528 122.708 97.4779L119.299 94.0689Z" fill="#775137"/>
<path d="M112.175 108.033L110.848 105.645L119.299 100.991L127.75 105.645L126.444 108.033L119.299 104.093L112.175 108.033Z" fill="#775137"/>
<path d="M119.299 86.618C118.257 86.618 117.239 86.3091 116.373 85.7304C115.507 85.1516 114.832 84.329 114.433 83.3666C114.034 82.4042 113.93 81.3452 114.133 80.3235C114.337 79.3018 114.838 78.3633 115.575 77.6267C116.311 76.89 117.25 76.3884 118.272 76.1852C119.293 75.982 120.352 76.0863 121.315 76.4849C122.277 76.8836 123.1 77.5587 123.678 78.4248C124.257 79.291 124.566 80.3093 124.566 81.351C124.563 82.7468 124.007 84.0845 123.02 85.0715C122.033 86.0585 120.695 86.6146 119.299 86.618ZM119.299 78.818C118.799 78.818 118.309 78.9664 117.893 79.2445C117.477 79.5227 117.152 79.9179 116.961 80.3804C116.769 80.8429 116.719 81.3518 116.817 81.8427C116.914 82.3337 117.155 82.7847 117.509 83.1387C117.863 83.4926 118.314 83.7337 118.805 83.8314C119.296 83.929 119.805 83.8789 120.268 83.6873C120.73 83.4958 121.125 83.1714 121.404 82.7551C121.682 82.3389 121.83 81.8496 121.83 81.349C121.826 80.6789 121.559 80.0374 121.085 79.5637C120.611 79.09 119.969 78.8214 119.299 78.818Z" fill="#775137"/>
<path d="M119.625 111.749C119.294 111.749 118.97 111.651 118.695 111.467C118.42 111.283 118.205 111.022 118.078 110.716C117.952 110.41 117.919 110.074 117.983 109.749C118.048 109.424 118.207 109.126 118.441 108.892C118.675 108.658 118.974 108.498 119.298 108.434C119.623 108.369 119.96 108.402 120.266 108.529C120.572 108.655 120.833 108.87 121.017 109.145C121.201 109.421 121.299 109.744 121.299 110.075C121.297 110.519 121.12 110.943 120.807 111.257C120.493 111.571 120.068 111.748 119.625 111.749ZM119.625 109.014C119.415 109.014 119.21 109.076 119.035 109.193C118.86 109.309 118.724 109.475 118.643 109.669C118.563 109.863 118.541 110.077 118.582 110.283C118.623 110.489 118.724 110.678 118.873 110.827C119.021 110.976 119.21 111.077 119.417 111.118C119.623 111.159 119.836 111.138 120.03 111.058C120.224 110.977 120.39 110.841 120.507 110.666C120.624 110.492 120.686 110.286 120.686 110.076C120.688 109.936 120.661 109.798 120.608 109.668C120.556 109.538 120.478 109.421 120.379 109.321C120.28 109.222 120.163 109.144 120.033 109.091C119.904 109.037 119.765 109.01 119.625 109.011V109.014Z" fill="#775137"/>
<path d="M119.625 112.014C119.242 112.014 118.867 111.9 118.548 111.687C118.229 111.474 117.98 111.172 117.834 110.817C117.687 110.463 117.648 110.073 117.723 109.697C117.798 109.321 117.983 108.975 118.254 108.704C118.525 108.433 118.871 108.248 119.247 108.173C119.623 108.099 120.013 108.137 120.367 108.284C120.721 108.431 121.024 108.679 121.237 108.998C121.45 109.317 121.564 109.692 121.564 110.075C121.564 110.33 121.514 110.582 121.417 110.817C121.319 111.053 121.177 111.267 120.996 111.447C120.816 111.627 120.603 111.77 120.367 111.867C120.132 111.964 119.88 112.014 119.625 112.014ZM119.625 108.666C119.346 108.666 119.074 108.749 118.842 108.904C118.611 109.059 118.43 109.279 118.323 109.536C118.217 109.793 118.189 110.077 118.243 110.35C118.297 110.623 118.432 110.874 118.629 111.072C118.826 111.269 119.077 111.403 119.35 111.457C119.623 111.512 119.907 111.484 120.164 111.377C120.422 111.27 120.642 111.09 120.797 110.858C120.951 110.626 121.034 110.354 121.034 110.075C121.034 109.702 120.885 109.343 120.621 109.079C120.357 108.815 119.999 108.666 119.625 108.665V108.666ZM119.625 111.401C119.363 111.401 119.106 111.323 118.888 111.178C118.67 111.032 118.499 110.825 118.399 110.582C118.299 110.34 118.272 110.073 118.324 109.815C118.375 109.558 118.501 109.321 118.687 109.136C118.872 108.95 119.109 108.824 119.366 108.773C119.624 108.722 119.89 108.748 120.133 108.848C120.375 108.949 120.583 109.119 120.728 109.337C120.874 109.555 120.952 109.812 120.952 110.074C120.952 110.249 120.918 110.421 120.852 110.582C120.785 110.743 120.687 110.89 120.564 111.013C120.441 111.136 120.294 111.234 120.133 111.3C119.972 111.367 119.799 111.401 119.625 111.4V111.401ZM119.625 109.278C119.472 109.278 119.322 109.324 119.194 109.409C119.066 109.494 118.967 109.615 118.908 109.757C118.849 109.899 118.834 110.055 118.864 110.206C118.894 110.356 118.968 110.494 119.076 110.603C119.185 110.711 119.323 110.785 119.474 110.815C119.624 110.845 119.78 110.83 119.922 110.771C120.064 110.712 120.185 110.613 120.27 110.485C120.356 110.358 120.401 110.208 120.401 110.054C120.401 109.952 120.381 109.851 120.343 109.757C120.304 109.662 120.246 109.577 120.174 109.505C120.102 109.432 120.017 109.375 119.922 109.336C119.828 109.297 119.727 109.277 119.625 109.277V109.278Z" fill="#775137"/>
<path d="M119.319 50.689C118.935 50.689 118.561 50.8027 118.242 51.0157C117.923 51.2288 117.674 51.5317 117.528 51.886C117.381 52.2403 117.342 52.6301 117.417 53.0063C117.492 53.3824 117.677 53.7279 117.948 53.9991C118.219 54.2702 118.565 54.4549 118.941 54.5297C119.317 54.6045 119.707 54.5661 120.061 54.4194C120.415 54.2726 120.718 54.0241 120.931 53.7052C121.144 53.3864 121.258 53.0115 121.258 52.628C121.258 52.3733 121.208 52.1211 121.111 51.8858C121.013 51.6505 120.87 51.4367 120.69 51.2566C120.51 51.0765 120.296 50.9337 120.061 50.8363C119.826 50.7389 119.574 50.6888 119.319 50.689ZM119.319 53.424C119.166 53.424 119.015 53.3785 118.888 53.2932C118.76 53.2079 118.661 53.0867 118.602 52.9449C118.543 52.8031 118.528 52.6471 118.558 52.4966C118.588 52.3461 118.662 52.2078 118.77 52.0992C118.879 51.9907 119.017 51.9168 119.168 51.8869C119.318 51.8569 119.474 51.8723 119.616 51.931C119.758 51.9898 119.879 52.0892 119.964 52.2169C120.049 52.3445 120.095 52.4945 120.095 52.648C120.095 52.7499 120.075 52.8509 120.036 52.9451C119.997 53.0393 119.94 53.1249 119.868 53.197C119.796 53.269 119.71 53.3262 119.616 53.3652C119.522 53.4041 119.421 53.4241 119.319 53.424Z" fill="#775137"/>
<path d="M143.857 68.7759C144.24 68.7759 144.615 68.6622 144.934 68.4492C145.253 68.2361 145.502 67.9333 145.648 67.579C145.795 67.2247 145.834 66.8348 145.759 66.4587C145.684 66.0825 145.499 65.737 145.228 65.4659C144.957 65.1947 144.611 65.01 144.235 64.9352C143.859 64.8604 143.469 64.8988 143.115 65.0456C142.761 65.1923 142.458 65.4408 142.245 65.7597C142.032 66.0786 141.918 66.4534 141.918 66.8369C141.918 67.0916 141.968 67.3438 142.065 67.5791C142.163 67.8144 142.306 68.0282 142.486 68.2083C142.666 68.3884 142.879 68.5312 143.115 68.6286C143.35 68.726 143.602 68.7761 143.857 68.7759ZM143.857 66.0399C144.01 66.0399 144.161 66.0855 144.288 66.1707C144.416 66.256 144.515 66.3772 144.574 66.519C144.633 66.6608 144.648 66.8168 144.618 66.9673C144.588 67.1179 144.514 67.2561 144.406 67.3646C144.297 67.4732 144.159 67.5471 144.008 67.577C143.858 67.607 143.702 67.5916 143.56 67.5329C143.418 67.4741 143.297 67.3747 143.212 67.2471C143.126 67.1195 143.081 66.9694 143.081 66.8159C143.081 66.714 143.101 66.613 143.14 66.5188C143.179 66.4246 143.236 66.339 143.308 66.2669C143.38 66.1948 143.466 66.1377 143.56 66.0987C143.654 66.0598 143.755 66.0398 143.857 66.0399Z" fill="#775137"/>
<path d="M143.551 93.7012C143.168 93.7012 142.793 93.8149 142.474 94.028C142.155 94.241 141.906 94.5438 141.76 94.8981C141.613 95.2524 141.574 95.6423 141.649 96.0184C141.724 96.3946 141.909 96.7401 142.18 97.0113C142.451 97.2824 142.797 97.4671 143.173 97.5419C143.549 97.6167 143.939 97.5783 144.293 97.4316C144.647 97.2848 144.95 97.0363 145.163 96.7174C145.376 96.3985 145.49 96.0237 145.49 95.6402C145.49 95.3855 145.44 95.1333 145.343 94.898C145.245 94.6627 145.103 94.4489 144.922 94.2688C144.742 94.0887 144.529 93.9459 144.293 93.8485C144.058 93.7511 143.806 93.701 143.551 93.7012ZM143.551 96.4362C143.398 96.4362 143.248 96.3907 143.12 96.3054C142.992 96.2201 142.893 96.0989 142.834 95.9571C142.775 95.8153 142.76 95.6593 142.79 95.5088C142.82 95.3583 142.894 95.22 143.002 95.1115C143.111 95.0029 143.249 94.929 143.4 94.8991C143.55 94.8691 143.706 94.8845 143.848 94.9432C143.99 95.002 144.111 95.1014 144.196 95.229C144.282 95.3566 144.327 95.5067 144.327 95.6602C144.327 95.7621 144.307 95.8631 144.268 95.9573C144.229 96.0515 144.172 96.1371 144.1 96.2092C144.028 96.2813 143.942 96.3384 143.848 96.3774C143.754 96.4163 143.653 96.4363 143.551 96.4362Z" fill="#775137"/>
<path d="M95.251 94.0068C94.8675 94.0068 94.4926 94.1206 94.1738 94.3336C93.8549 94.5467 93.6064 94.8495 93.4596 95.2038C93.3129 95.5581 93.2745 95.948 93.3493 96.3241C93.4241 96.7003 93.6088 97.0458 93.8799 97.3169C94.1511 97.5881 94.4966 97.7727 94.8727 97.8476C95.2489 97.9224 95.6387 97.884 95.993 97.7372C96.3473 97.5905 96.6502 97.342 96.8632 97.0231C97.0763 96.7042 97.19 96.3293 97.19 95.9458C97.1902 95.6912 97.1401 95.439 97.0427 95.2036C96.9453 94.9683 96.8025 94.7545 96.6224 94.5745C96.4423 94.3944 96.2285 94.2516 95.9932 94.1542C95.7579 94.0568 95.5057 94.0067 95.251 94.0068ZM95.251 96.7418C95.0975 96.7418 94.9475 96.6963 94.8199 96.6111C94.6923 96.5258 94.5928 96.4046 94.5341 96.2628C94.4753 96.121 94.46 95.965 94.4899 95.8145C94.5199 95.6639 94.5938 95.5256 94.7023 95.4171C94.8108 95.3086 94.9491 95.2347 95.0996 95.2047C95.2502 95.1748 95.4062 95.1902 95.548 95.2489C95.6898 95.3076 95.811 95.4071 95.8962 95.5347C95.9815 95.6623 96.027 95.8124 96.027 95.9659C96.0288 96.0682 96.0099 96.1699 95.9715 96.2649C95.9331 96.3598 95.8761 96.4461 95.8036 96.5185C95.7312 96.5909 95.645 96.648 95.55 96.6863C95.4551 96.7247 95.3534 96.7436 95.251 96.7418Z" fill="#775137"/>
<path d="M95.578 65.4888C95.1945 65.4888 94.8197 65.6025 94.5008 65.8156C94.1819 66.0286 93.9334 66.3315 93.7866 66.6858C93.6399 67.0401 93.6015 67.4299 93.6763 67.8061C93.7511 68.1822 93.9358 68.5277 94.207 68.7989C94.4781 69.07 94.8236 69.2547 95.1998 69.3295C95.5759 69.4043 95.9658 69.3659 96.3201 69.2192C96.6744 69.0724 96.9772 68.8239 97.1903 68.505C97.4033 68.1862 97.5171 67.8113 97.5171 67.4278C97.5172 67.1731 97.4671 66.9209 97.3697 66.6856C97.2723 66.4503 97.1295 66.2365 96.9494 66.0564C96.7693 65.8763 96.5555 65.7335 96.3202 65.6361C96.0849 65.5387 95.8327 65.4886 95.578 65.4888ZM95.578 68.2238C95.4245 68.2238 95.2745 68.1783 95.1469 68.093C95.0193 68.0077 94.9198 67.8865 94.8611 67.7447C94.8024 67.6029 94.787 67.4469 94.8169 67.2964C94.8469 67.1459 94.9208 67.0076 95.0293 66.899C95.1378 66.7905 95.2761 66.7166 95.4267 66.6867C95.5772 66.6567 95.7332 66.6721 95.875 66.7308C96.0168 66.7896 96.138 66.8891 96.2233 67.0167C96.3085 67.1443 96.354 67.2943 96.354 67.4478C96.3542 67.5497 96.3342 67.6507 96.2953 67.7449C96.2563 67.8391 96.1991 67.9247 96.127 67.9968C96.055 68.0688 95.9694 68.126 95.8751 68.165C95.7809 68.2039 95.68 68.2239 95.578 68.2238Z" fill="#775137"/>
<path d="M39.7669 173.947H33.5369V177.622H39.1099V178.683H33.5369V183.174H32.377V172.887H39.7669V173.947Z" fill="#775137"/>
<path d="M52.1989 183.155H50.9539L49.7539 180.44H44.1609L42.9359 183.155H41.7469L46.4469 172.785H47.5289L52.1989 183.155ZM46.9529 174.173L44.6049 179.419H49.3049L46.9529 174.173Z" fill="#775137"/>
<path d="M63.08 183.156L60.1 179.156H57.16V183.156H55.996V172.867H60.426C60.9448 172.862 61.4612 172.938 61.957 173.091C62.3848 173.219 62.7812 173.434 63.121 173.724C63.4438 173.989 63.702 174.324 63.876 174.704C64.0615 175.1 64.1523 175.533 64.141 175.97C64.1513 176.367 64.0834 176.763 63.941 177.134C63.8115 177.462 63.617 177.761 63.369 178.012C63.1021 178.266 62.7988 178.48 62.469 178.645C62.1174 178.824 61.7375 178.942 61.346 178.992L64.51 183.197H63.081L63.08 183.156ZM62.28 174.48C61.7124 174.088 61.0288 173.901 60.341 173.949H57.156V178.137H60.32C60.6789 178.144 61.0367 178.095 61.381 177.994C61.6847 177.905 61.9688 177.76 62.218 177.565C62.4555 177.39 62.645 177.158 62.769 176.891C62.9 176.609 62.9682 176.302 62.969 175.991C62.981 175.703 62.9255 175.417 62.8069 175.154C62.6883 174.892 62.5099 174.661 62.286 174.48H62.28Z" fill="#775137"/>
<path d="M73.327 180.338H73.266L69.507 174.847V183.176H68.387V172.887H69.571L73.327 178.501L77.083 172.887H78.267V183.176H77.107V174.847L73.327 180.338Z" fill="#775137"/>
<path d="M87.454 176.092C87.5471 176.304 87.6952 176.487 87.883 176.623C88.1451 176.814 88.4339 176.965 88.74 177.072C89.1935 177.227 89.6573 177.349 90.128 177.439C91.0436 177.588 91.9108 177.952 92.659 178.501C92.9316 178.729 93.1474 179.017 93.2892 179.343C93.431 179.669 93.495 180.024 93.476 180.379C93.4845 180.794 93.3936 181.206 93.211 181.579C93.0385 181.937 92.7953 182.256 92.496 182.518C92.1721 182.786 91.7982 182.987 91.396 183.11C90.9401 183.252 90.4643 183.32 89.987 183.31C89.2142 183.321 88.4461 183.189 87.721 182.922C87.0065 182.633 86.3498 182.218 85.782 181.697L86.497 180.84C86.9777 181.293 87.5293 181.665 88.13 181.94C88.7304 182.195 89.3779 182.32 90.03 182.307C90.6271 182.335 91.2164 182.163 91.704 181.817C91.903 181.667 92.0641 181.473 92.174 181.25C92.284 181.026 92.3398 180.78 92.337 180.531C92.3479 180.306 92.3056 180.081 92.2133 179.875C92.121 179.67 91.9814 179.489 91.806 179.347C91.5596 179.159 91.2834 179.014 90.989 178.918C90.5536 178.772 90.1106 178.649 89.662 178.551C89.1381 178.452 88.6253 178.302 88.131 178.102C87.738 177.961 87.3721 177.754 87.049 177.49C86.7809 177.267 86.5649 176.988 86.416 176.673C86.13 175.942 86.1448 175.127 86.457 174.407C86.6287 174.06 86.8725 173.753 87.172 173.507C87.4941 173.246 87.8606 173.046 88.254 172.915C88.6888 172.774 89.144 172.707 89.601 172.715C90.2737 172.702 90.9435 172.806 91.581 173.021C92.175 173.238 92.7273 173.556 93.214 173.96L92.54 174.86C92.1048 174.5 91.6158 174.211 91.091 174.003C90.6009 173.823 90.0821 173.733 89.56 173.738C89.2556 173.734 88.9523 173.775 88.66 173.86C88.4117 173.938 88.1775 174.055 87.966 174.207C87.7738 174.343 87.6193 174.526 87.517 174.738C87.413 174.94 87.3572 175.164 87.354 175.391C87.3279 175.629 87.3623 175.87 87.454 176.092Z" fill="#775137"/>
<path d="M101.275 183.156H100.111V173.927H96.661V172.847H104.725V173.927H101.275V183.156Z" fill="#775137"/>
<path d="M116.932 183.155H115.687L114.487 180.44H108.894L107.669 183.155H106.48L111.18 172.785H112.262L116.932 183.155ZM111.686 174.173L109.338 179.419H114.038L111.686 174.173Z" fill="#775137"/>
<path d="M123.506 183.156H122.345V179.073L118.058 172.847H119.467L122.937 177.991L126.428 172.847H127.775L123.488 179.053V183.153L123.506 183.156Z" fill="#775137"/>
<path d="M136.101 178.542V183.176H134.937V172.887H136.101V177.46H142.041V172.887H143.205V183.176H142.041V178.542H136.101Z" fill="#775137"/>
<path d="M155.31 173.928H149.023V177.437H154.637V178.499H149.023V182.092H155.372V183.153H147.859V172.867H155.29V173.929L155.31 173.928Z" fill="#775137"/>
<path d="M169.069 183.155H167.824L166.624 180.44H161.031L159.806 183.155H158.617L163.317 172.785H164.399L169.069 183.155ZM163.823 174.173L161.475 179.419H166.175L163.823 174.173Z" fill="#775137"/>
<path d="M179.153 172.867H180.398L175.968 183.237H174.948L170.518 172.867H171.808L175.462 181.727L179.153 172.867Z" fill="#775137"/>
<path d="M191.626 173.928H185.339V177.437H190.953V178.499H185.339V182.092H191.688V183.153H184.175V172.867H191.606V173.929L191.626 173.928Z" fill="#775137"/>
<path d="M203.364 172.867H204.487V183.156H203.568L196.933 174.725V183.156H195.811V172.867H196.893L203.385 181.114V172.867H203.364Z" fill="#775137"/>
</svg>
