<svg width="700" height="477" viewBox="0 0 700 477" fill="none" xmlns="http://www.w3.org/2000/svg">
<mask id="mask0_3_715" style="mask-type:luminance" maskUnits="userSpaceOnUse" x="0" y="0" width="700" height="477">
<path d="M700 0H0V476.742H700V0Z" fill="white"/>
</mask>
<g mask="url(#mask0_3_715)">
<path d="M47.674 243.867V164.767H58.07V243.867H47.674Z" fill="white"/>
<path d="M65.007 84.749V5.64902H75.403V44.295H125.123V5.64902H135.406V84.749H125.123V46.103H75.403V84.749H65.007Z" fill="white"/>
<path d="M275.162 37.9884L315.277 117.088H303.864L299.344 108.274C292.79 97.2004 277.874 86.4654 264.54 86.4654C258.325 86.4654 252.449 88.9514 248.042 94.8274C251.884 87.8214 257.986 85.1094 264.879 85.1094C275.162 85.1094 287.14 91.5504 295.163 100.025L269.399 49.2884L244.765 97.9914C242.166 103.189 241.262 107.37 241.262 110.421C241.262 113.811 242.392 115.845 243.409 116.184C243.861 116.297 243.861 117.088 243.861 117.088H233.126L273.241 37.9884H275.162Z" fill="white"/>
<path d="M629.157 0.617178H616.84V77.9092H606.444V-1.19083H632.547C653.678 -1.19083 664.187 11.2392 664.187 23.6692C664.187 33.2742 654.469 46.3822 637.067 46.3822C631.643 46.3822 625.428 45.0262 618.535 41.9752C622.264 43.1052 625.767 43.5572 629.044 43.5572C643.734 43.5572 652.887 33.1612 652.887 23.6692C652.887 12.1432 644.977 0.617178 629.157 0.617178Z" fill="white"/>
<path d="M479.137 43.0044H466.82V120.296H456.424V41.1964H482.527C503.658 41.1964 514.167 53.6264 514.167 66.0564C514.167 75.6614 504.449 88.7694 487.047 88.7694C481.623 88.7694 475.408 87.4134 468.515 84.3624C472.244 85.4924 475.747 85.9444 479.024 85.9444C493.714 85.9444 502.867 75.5484 502.867 66.0564C502.867 54.5304 494.957 43.0044 479.137 43.0044Z" fill="white"/>
<path d="M178.261 304.603V225.503H183.007L242.897 289.687V247.425C242.897 234.317 238.151 227.085 236.117 226.407C235.778 226.294 235.778 225.503 235.778 225.503H244.705V304.603H242.897L180.069 237.255V279.969C180.069 296.015 184.928 303.021 186.962 303.699C187.414 303.812 187.414 304.603 187.414 304.603H178.261Z" fill="white"/>
<path d="M393.206 267.757V188.657H443.378L444.734 195.889C444.734 195.889 443.83 195.776 443.717 195.55C442.248 193.064 431.852 190.465 415.241 190.465H403.489V265.949H418.292C438.858 265.949 447.22 261.542 448.011 259.734C448.124 259.395 448.915 259.395 448.915 259.395L445.864 267.757H393.206ZM404.845 231.371C406.201 225.721 408.8 224.026 412.077 224.026C417.501 224.026 424.733 229.224 430.383 229.224C432.53 229.224 434.451 228.433 435.92 226.512C434.338 230.015 432.078 231.258 429.592 231.258C424.055 231.258 417.049 225.834 411.625 225.834C408.8 225.834 406.427 227.19 404.845 231.371Z" fill="white"/>
<path d="M610.061 259.982C608.592 274.22 623.508 280.661 638.085 280.661C651.645 280.661 664.866 275.237 664.866 265.18C664.866 244.614 610.626 248.908 610.626 220.771C610.626 206.42 624.299 199.866 638.085 199.866C652.775 199.866 667.691 207.098 667.126 220.093C664.753 207.889 653.34 202.578 642.266 202.578C630.514 202.578 619.101 208.454 619.101 218.059C619.101 238.738 674.697 231.167 674.697 260.434C674.697 276.028 657.973 283.147 641.475 283.147C625.316 283.147 609.496 276.254 609.496 264.05C609.496 262.694 609.722 261.451 610.061 259.982Z" fill="white"/>
<path d="M347.808 387.658C346.339 401.896 361.255 408.337 375.832 408.337C389.392 408.337 402.613 402.913 402.613 392.856C402.613 372.29 348.373 376.584 348.373 348.447C348.373 334.096 362.046 327.542 375.832 327.542C390.522 327.542 405.438 334.774 404.873 347.769C402.5 335.565 391.087 330.254 380.013 330.254C368.261 330.254 356.848 336.13 356.848 345.735C356.848 366.414 412.444 358.843 412.444 388.11C412.444 403.704 395.72 410.823 379.222 410.823C363.063 410.823 347.243 403.93 347.243 391.726C347.243 390.37 347.469 389.127 347.808 387.658Z" fill="white"/>
<path d="M47.144 243.867V164.767H57.54V243.867H47.144Z" fill="white"/>
<path d="M64.477 84.749V5.64902H74.873V44.295H124.593V5.64902H134.876V84.749H124.593V46.103H74.873V84.749H64.477Z" fill="white"/>
<path d="M274.632 37.9884L314.747 117.088H303.334L298.814 108.274C292.26 97.2004 277.344 86.4654 264.01 86.4654C257.795 86.4654 251.919 88.9514 247.512 94.8274C251.354 87.8214 257.456 85.1094 264.349 85.1094C274.632 85.1094 286.61 91.5504 294.633 100.025L268.869 49.2884L244.235 97.9914C241.636 103.189 240.732 107.37 240.732 110.421C240.732 113.811 241.862 115.845 242.879 116.184C243.331 116.297 243.331 117.088 243.331 117.088H232.596L272.711 37.9884H274.632Z" fill="white"/>
<path d="M628.627 0.617178H616.31V77.9092H605.914V-1.19083H632.017C653.148 -1.19083 663.657 11.2392 663.657 23.6692C663.657 33.2742 653.939 46.3822 636.537 46.3822C631.113 46.3822 624.898 45.0262 618.005 41.9752C621.734 43.1052 625.237 43.5572 628.514 43.5572C643.204 43.5572 652.357 33.1612 652.357 23.6692C652.357 12.1432 644.447 0.617178 628.627 0.617178Z" fill="white"/>
<path d="M478.607 43.0044H466.29V120.296H455.894V41.1964H481.997C503.128 41.1964 513.637 53.6264 513.637 66.0564C513.637 75.6614 503.919 88.7694 486.517 88.7694C481.093 88.7694 474.878 87.4134 467.985 84.3624C471.714 85.4924 475.217 85.9444 478.494 85.9444C493.184 85.9444 502.337 75.5484 502.337 66.0564C502.337 54.5304 494.427 43.0044 478.607 43.0044Z" fill="white"/>
<path d="M177.731 304.603V225.503H182.477L242.367 289.687V247.425C242.367 234.317 237.621 227.085 235.587 226.407C235.248 226.294 235.248 225.503 235.248 225.503H244.175V304.603H242.367L179.539 237.255V279.969C179.539 296.015 184.398 303.021 186.432 303.699C186.884 303.812 186.884 304.603 186.884 304.603H177.731Z" fill="white"/>
<path d="M392.676 267.757V188.657H442.848L444.204 195.889C444.204 195.889 443.3 195.776 443.187 195.55C441.718 193.064 431.322 190.465 414.711 190.465H402.959V265.949H417.762C438.328 265.949 446.69 261.542 447.481 259.734C447.594 259.395 448.385 259.395 448.385 259.395L445.334 267.757H392.676ZM404.315 231.371C405.671 225.721 408.27 224.026 411.547 224.026C416.971 224.026 424.203 229.224 429.853 229.224C432 229.224 433.921 228.433 435.39 226.512C433.808 230.015 431.548 231.258 429.062 231.258C423.525 231.258 416.519 225.834 411.095 225.834C408.27 225.834 405.897 227.19 404.315 231.371Z" fill="white"/>
<path d="M609.531 259.982C608.062 274.22 622.978 280.661 637.555 280.661C651.115 280.661 664.336 275.237 664.336 265.18C664.336 244.614 610.096 248.908 610.096 220.771C610.096 206.42 623.769 199.866 637.555 199.866C652.245 199.866 667.161 207.098 666.596 220.093C664.223 207.889 652.81 202.578 641.736 202.578C629.984 202.578 618.571 208.454 618.571 218.059C618.571 238.738 674.167 231.167 674.167 260.434C674.167 276.028 657.443 283.147 640.945 283.147C624.786 283.147 608.966 276.254 608.966 264.05C608.966 262.694 609.192 261.451 609.531 259.982Z" fill="white"/>
<path d="M347.278 387.658C345.809 401.896 360.725 408.337 375.302 408.337C388.862 408.337 402.083 402.913 402.083 392.856C402.083 372.29 347.843 376.584 347.843 348.447C347.843 334.096 361.516 327.542 375.302 327.542C389.992 327.542 404.908 334.774 404.343 347.769C401.97 335.565 390.557 330.254 379.483 330.254C367.731 330.254 356.318 336.13 356.318 345.735C356.318 366.414 411.914 358.843 411.914 388.11C411.914 403.704 395.19 410.823 378.692 410.823C362.533 410.823 346.713 403.93 346.713 391.726C346.713 390.37 346.939 389.127 347.278 387.658Z" fill="white"/>
</g>
</svg>
