<svg width="30" height="29" viewBox="0 0 30 29" fill="none" xmlns="http://www.w3.org/2000/svg">
<path d="M21.406 28.9997H9.13899C6.93818 28.9982 4.82797 28.1232 3.27176 26.567C1.71555 25.0108 0.840578 22.9006 0.838989 20.6997L0.838989 8.43574C0.840578 6.23493 1.71555 4.12472 3.27176 2.56851C4.82797 1.0123 6.93818 0.137331 9.13899 0.135742L21.409 0.135742C23.6097 0.137596 25.7198 1.01265 27.2759 2.5688C28.8321 4.12495 29.7071 6.23501 29.709 8.43574V20.7057C29.7071 22.9065 28.8321 25.0165 27.2759 26.5727C25.7198 28.1288 23.6097 29.0039 21.409 29.0057M9.13899 1.22674C7.22728 1.2278 5.39415 1.98763 4.04227 3.33932C2.69039 4.69101 1.93031 6.52403 1.92899 8.43574V20.7057C1.9319 22.6165 2.69265 24.4481 4.04433 25.7986C5.39601 27.1492 7.22822 27.9084 9.13899 27.9097H21.409C23.3193 27.9071 25.1507 27.147 26.5015 25.7962C27.8523 24.4454 28.6123 22.6141 28.615 20.7037V8.43574C28.6126 6.52532 27.8526 4.69383 26.5018 3.34296C25.1509 1.99209 23.3194 1.23212 21.409 1.22974L9.13899 1.22674Z" fill="#B19B8C"/>
<path d="M15.2679 24.0008C13.4022 24.0004 11.5786 23.4468 10.0274 22.4101C8.47634 21.3733 7.26747 19.8999 6.55368 18.1761C5.83989 16.4524 5.65323 14.5557 6.01731 12.7258C6.38139 10.896 7.27985 9.21522 8.5991 7.89597C9.91834 6.57672 11.5991 5.67826 13.429 5.31419C15.2588 4.95011 17.1555 5.13677 18.8793 5.85055C20.603 6.56434 22.0764 7.77321 23.1132 9.32432C24.15 10.8754 24.7035 12.6991 24.7039 14.5648C24.7016 17.0667 23.7066 19.4654 21.9376 21.2344C20.1685 23.0035 17.7698 23.9984 15.2679 24.0008ZM15.2679 6.22382C13.6179 6.22441 12.0051 6.71427 10.6334 7.63146C9.26178 8.54865 8.19291 9.85198 7.56196 11.3766C6.93102 12.9013 6.76635 14.5788 7.08876 16.197C7.41118 17.8153 8.20621 19.3016 9.37332 20.468C10.5404 21.6344 12.0272 22.4285 13.6456 22.75C15.2641 23.0714 16.9415 22.9057 18.4657 22.2739C19.99 21.642 21.2927 20.5724 22.2091 19.2002C23.1254 17.828 23.6143 16.2149 23.6139 14.5648C23.6105 12.3529 22.7299 10.2327 21.1653 8.66923C19.6007 7.10575 17.4798 6.22567 15.2679 6.22382Z" fill="#B19B8C"/>
<path d="M24.164 7.66545C23.7708 7.66545 23.3865 7.54886 23.0596 7.33042C22.7326 7.11197 22.4778 6.80149 22.3274 6.43823C22.1769 6.07497 22.1375 5.67525 22.2142 5.28961C22.2909 4.90398 22.4803 4.54975 22.7583 4.27173C23.0363 3.9937 23.3906 3.80436 23.7762 3.72765C24.1618 3.65095 24.5615 3.69031 24.9248 3.84078C25.2881 3.99125 25.5985 4.24606 25.817 4.57298C26.0354 4.89991 26.152 5.28426 26.152 5.67745C26.1515 6.20454 25.9419 6.70989 25.5692 7.0826C25.1965 7.45531 24.6911 7.66492 24.164 7.66545ZM24.164 4.77945C23.986 4.77945 23.812 4.83224 23.664 4.93113C23.516 5.03002 23.4007 5.17059 23.3325 5.33504C23.2644 5.49949 23.2466 5.68045 23.2813 5.85504C23.316 6.02962 23.4018 6.18998 23.5276 6.31585C23.6535 6.44172 23.8139 6.52743 23.9884 6.56216C24.163 6.59689 24.344 6.57906 24.5084 6.51095C24.6729 6.44283 24.8135 6.32747 24.9123 6.17947C25.0112 6.03146 25.064 5.85746 25.064 5.67945C25.064 5.44076 24.9692 5.21184 24.8004 5.04306C24.6316 4.87428 24.4027 4.77945 24.164 4.77945Z" fill="#B19B8C"/>
</svg>
