<svg width="232" height="244" viewBox="0 0 232 244" fill="none" xmlns="http://www.w3.org/2000/svg">
<mask id="mask0_3_745" style="mask-type:luminance" maskUnits="userSpaceOnUse" x="0" y="0" width="232" height="244">
<path d="M232 0H0V244H232V0Z" fill="white"/>
</mask>
<g mask="url(#mask0_3_745)">
<path d="M180.519 124.954C180.519 141.39 173.99 157.152 162.368 168.774C150.746 180.396 134.984 186.925 118.548 186.925C102.112 186.925 86.3497 180.396 74.7279 168.774C63.1061 157.152 56.577 141.39 56.577 124.954H180.519Z" stroke="#918D6C" stroke-width="1.5" stroke-miterlimit="10"/>
<path d="M56.577 116.066C56.577 99.6305 63.1061 83.8679 74.7279 72.2461C86.3497 60.6243 102.112 54.0952 118.548 54.0952C134.984 54.0952 150.746 60.6243 162.368 72.2461C173.99 83.8679 180.519 99.6305 180.519 116.066H56.577Z" stroke="#918D6C" stroke-width="1.5" stroke-miterlimit="10"/>
<path d="M38.85 57.2589C42.592 52.4829 45.658 49.4359 49.769 52.6589C52.323 54.6589 51.917 58.7529 49.147 62.2799C48.6513 62.9133 48.1037 63.5043 47.51 64.0469L54.398 69.4469L52.7791 71.5149L37.231 59.3259L38.85 57.2589ZM46.981 63.6239C47.4009 63.2688 47.7845 62.8729 48.126 62.4419C50.077 59.9549 50.502 56.5269 47.683 54.3169C43.971 51.4119 41.965 54.3909 39.383 57.6779L46.981 63.6239Z" fill="#918E6C"/>
<path d="M52.853 41.483L55.124 39.667C59.864 35.882 63.175 33.555 66.431 37.636C67.945 39.536 67.7171 41.594 65.9691 43.927L76.553 47.818L74.153 49.738L64.126 46.051C63.449 46.697 62.458 47.528 61.596 48.218L67.234 55.272L65.184 56.909L52.853 41.483ZM61.1931 47.712C64.9601 44.696 66.793 42.295 64.172 39.012C61.23 35.331 58.589 37.769 55.327 40.372L61.1931 47.712Z" fill="#918E6C"/>
<path d="M71.78 28.175L74.0941 26.938L83.413 44.351L81.099 45.588L71.78 28.175Z" fill="#918E6C"/>
<path d="M99.116 20.6721L97.294 38.8551L96.722 39.0151L85.692 24.4331L90.278 40.8181L89.65 40.9901L84.676 23.2201L83.919 22.0811L86.6641 21.3121L97.011 35.0321L98.728 17.9391L100.901 17.3301L106.225 36.3501L103.701 37.0581L99.116 20.6721Z" fill="#918E6C"/>
<path d="M115.858 16.7021L115.717 25.1651L122.402 25.2761L122.39 25.9221L115.705 25.8111L115.545 35.149L117.745 35.1861C118.977 35.2675 120.213 35.0996 121.378 34.6924C122.544 34.2852 123.615 33.647 124.528 32.8161L124.473 35.9491L112.907 35.7491L113.239 15.9971L124.78 16.1971L124.725 19.33C123.84 18.4693 122.79 17.7954 121.639 17.3488C120.488 16.9021 119.259 16.6917 118.025 16.7301L115.858 16.7021Z" fill="#918E6C"/>
<path d="M152.525 22.216C158.125 24.555 161.869 26.703 159.856 31.523C158.606 34.514 154.556 35.204 150.414 33.474C149.673 33.1636 148.959 32.793 148.278 32.366L144.905 40.436L142.486 39.427L150.106 21.207L152.525 22.216ZM148.536 31.738C148.99 32.0483 149.475 32.3123 149.982 32.526C152.9 33.745 156.316 33.246 157.701 29.941C159.517 25.595 156.113 24.441 152.266 22.841L148.536 31.738Z" fill="#918E6C"/>
<path d="M171.526 31.6899L173.859 33.42C178.728 37.039 181.818 39.643 178.703 43.835C177.257 45.786 175.203 46.0879 172.503 44.9919L171.438 56.2189L168.97 54.3849L169.98 43.749C169.18 43.263 168.121 42.5119 167.241 41.8489L161.855 49.0999L159.75 47.537L171.526 31.6899ZM167.626 41.3409C171.498 44.2159 174.292 45.3789 176.797 41.9999C179.604 38.2149 176.575 36.282 173.227 33.8L167.626 41.3409Z" fill="#918E6C"/>
<path d="M195.691 53.7691C199.291 58.2931 198.658 64.0241 193.912 67.8031C189.166 71.5821 183.485 70.8741 179.884 66.3441C176.283 61.8141 176.893 56.1441 181.638 52.3651C186.383 48.5861 192.091 49.2451 195.691 53.7691ZM195.18 54.1751C192.755 51.1281 187.68 50.9131 183.288 54.4091C178.896 57.9051 177.964 62.8971 180.388 65.9441C182.812 68.9911 187.904 69.2311 192.298 65.7351C196.692 62.2391 197.606 57.2221 195.18 54.1751Z" fill="#918E6C"/>
<path d="M21 148.437L39.85 142.571L43.278 153.589L40.287 154.518C40.8265 153.408 41.1372 152.2 41.2006 150.967C41.264 149.734 41.0788 148.501 40.656 147.341L40.01 145.267L31.928 147.778L33.916 154.161L33.294 154.352L31.306 147.975L21.772 150.942L21 148.437Z" fill="#918E6C"/>
<path d="M47.985 163.351L48.619 164.514L35.194 181.065L33.674 178.295L37.041 174.165L32.541 165.948L27.272 166.613L26.989 166.096L47.985 163.351ZM33.139 165.851L37.423 173.674L45.043 164.324L33.139 165.851Z" fill="#918E6C"/>
<path d="M56.066 176.16L58.017 178.314C62.098 182.807 64.617 185.965 60.756 189.473C58.956 191.104 56.884 191.006 54.447 189.411L51.228 200.226L49.16 197.949L52.207 187.707C51.518 187.073 50.625 186.131 49.886 185.319L43.201 191.388L41.435 189.443L56.066 176.16ZM50.372 184.876C53.616 188.446 56.133 190.126 59.248 187.301C62.738 184.131 60.14 181.65 57.334 178.561L50.372 184.876Z" fill="#918E6C"/>
<path d="M80.152 200.227L65.3181 210.894L64.8181 210.574L68.45 192.656L59.2061 206.941L58.658 206.59L68.685 191.097L69.036 189.78L71.4301 191.331L67.9951 208.166L81.9431 198.141L83.843 199.366L73.114 215.948L70.914 214.52L80.152 200.227Z" fill="#918E6C"/>
<path d="M92.2339 203.231L89.68 211.301L96.0569 213.32L95.857 213.936L89.48 211.917L86.6609 220.824L88.761 221.489C89.9185 221.917 91.1503 222.108 92.3832 222.051C93.6161 221.994 94.8249 221.69 95.938 221.157L94.996 224.142L83.9659 220.652L89.924 201.823L100.924 205.301L99.982 208.286C99.3782 207.209 98.5641 206.265 97.5882 205.509C96.6123 204.753 95.4944 204.201 94.301 203.886L92.2339 203.231Z" fill="#918E6C"/>
<path d="M107.512 206.585L110.412 206.764C116.469 207.139 120.476 207.644 120.156 212.852C120.008 215.271 118.456 216.652 115.589 217.204L120.821 227.194L117.749 227.003L112.794 217.536C111.858 217.561 110.56 217.511 109.464 217.444L108.904 226.455L106.288 226.295L107.512 206.585ZM109.506 216.803C114.319 217.103 117.292 216.551 117.557 212.353C117.846 207.653 114.257 207.681 110.091 207.423L109.506 216.803Z" fill="#918E6C"/>
<path d="M135.993 225.452L131.327 206.26L142.537 203.532L143.276 206.573C142.201 205.965 141.016 205.579 139.789 205.439C138.563 205.298 137.32 205.405 136.136 205.754L134.025 206.265L136.025 214.488L142.525 212.906L142.679 213.534L136.179 215.116L138.536 224.823L135.993 225.452Z" fill="#918E6C"/>
<path d="M148.525 201.04L150.925 199.975L158.945 218.022L156.545 219.087L148.525 201.04Z" fill="#918E6C"/>
<path d="M157.253 196.94L159.647 195.297C164.647 191.862 168.117 189.788 171.071 194.091C172.444 196.091 172.071 198.129 170.154 200.332L180.427 204.979L177.891 206.721L168.159 202.314C167.439 202.914 166.386 203.668 165.482 204.29L170.591 211.732L168.43 213.215L157.253 196.94ZM165.113 203.76C169.089 201.027 171.096 198.76 168.713 195.296C166.048 191.412 163.235 193.653 159.794 196.01L165.113 203.76Z" fill="#918E6C"/>
<path d="M187.659 198.239L180.987 193.715C180.925 193.66 181.024 193.333 181.187 193.444C187.902 197.962 189.909 195.137 191.645 193.21C193.719 190.902 193.867 188.04 192.211 186.544C188.099 182.844 180.775 193.222 176.097 189.018C173.118 186.34 174.38 183.035 176.134 181.084C177.605 179.447 179.31 178.019 180.763 176.4L186.863 180.672C186.949 180.746 186.678 180.961 186.617 180.906C180.406 176.8 177.993 179.983 176.695 181.429C175.261 183.023 174.895 184.901 176.56 186.39C181.176 190.539 187.406 179.182 192.336 183.614C195.611 186.556 194.466 191.031 192.201 193.555C190.801 195.106 189.727 195.925 188.255 197.562L187.659 198.239Z" fill="#918E6C"/>
<path d="M192.199 157.83L194.938 159.35C192.671 160.069 190.776 161.647 189.657 163.745L206.357 173.021L205.083 175.321L188.383 166.045C187.195 168.105 186.857 170.548 187.441 172.853L184.702 171.333L192.199 157.83Z" fill="#918E6C"/>
<path d="M210.477 150.4C210.112 151.657 209.382 152.778 208.38 153.621C207.378 154.464 206.148 154.99 204.847 155.134C203.545 155.278 202.231 155.032 201.069 154.429C199.907 153.825 198.95 152.89 198.319 151.743C197.689 150.595 197.413 149.286 197.526 147.982C197.64 146.677 198.137 145.436 198.956 144.414C199.775 143.393 200.879 142.637 202.128 142.243C203.376 141.849 204.714 141.834 205.971 142.2C207.653 142.695 209.07 143.835 209.914 145.371C210.758 146.907 210.961 148.715 210.477 150.4ZM210.145 150.3C210.577 148.716 210.369 147.025 209.567 145.593C208.764 144.161 207.431 143.101 205.855 142.642C204.278 142.183 202.585 142.361 201.139 143.139C199.692 143.917 198.61 145.232 198.124 146.8C197.894 147.589 197.822 148.416 197.912 149.233C198.002 150.051 198.251 150.842 198.647 151.563C199.043 152.283 199.576 152.919 200.218 153.433C200.859 153.948 201.595 154.331 202.384 154.561C203.174 154.79 204.001 154.862 204.818 154.773C205.635 154.683 206.426 154.433 207.147 154.038C207.868 153.642 208.503 153.108 209.018 152.467C209.532 151.826 209.915 151.089 210.145 150.3ZM199.022 148.86C199.828 146.09 200.77 144.237 202.888 144.853C204.002 145.179 204.451 146.053 204.421 147.426L209.567 146.053L209.124 147.573L204.249 148.873C204.163 149.31 204.049 149.773 203.898 150.283L207.991 151.477L207.609 152.777L198.647 150.167L199.022 148.86ZM203.622 150.202C204.262 148.011 204.244 146.687 202.336 146.133C200.446 145.585 199.836 147.013 199.283 148.94L203.622 150.202Z" fill="#918E6C"/>
<path d="M31.267 109.973C34.2145 109.973 36.604 107.584 36.604 104.636C36.604 101.689 34.2145 99.2991 31.267 99.2991C28.3194 99.2991 25.93 101.689 25.93 104.636C25.93 107.584 28.3194 109.973 31.267 109.973Z" stroke="#918D6C" stroke-width="1.5" stroke-miterlimit="10"/>
<path d="M203.147 109.973C206.095 109.973 208.484 107.584 208.484 104.636C208.484 101.689 206.095 99.2991 203.147 99.2991C200.2 99.2991 197.81 101.689 197.81 104.636C197.81 107.584 200.2 109.973 203.147 109.973Z" stroke="#918D6C" stroke-width="1.5" stroke-miterlimit="10"/>
</g>
</svg>
