<svg width="30" height="29" viewBox="0 0 30 29" fill="none" xmlns="http://www.w3.org/2000/svg">
<path d="M21.038 28.9997H8.76399C6.56318 28.9982 4.45297 28.1232 2.89676 26.567C1.34055 25.0108 0.465578 22.9006 0.463989 20.6997V8.43574C0.465578 6.23493 1.34055 4.12472 2.89676 2.56851C4.45297 1.0123 6.56318 0.137331 8.76399 0.135742L21.038 0.135742C23.2387 0.137596 25.3488 1.01265 26.9049 2.5688C28.4611 4.12495 29.3361 6.23501 29.338 8.43574V20.7057C29.3361 22.9065 28.4611 25.0165 26.9049 26.5727C25.3488 28.1288 23.2387 29.0039 21.038 29.0057M8.76399 1.22674C6.85297 1.22886 5.02087 1.98915 3.66986 3.34073C2.31884 4.69231 1.55931 6.52472 1.55799 8.43574V20.7057C1.56037 22.6162 2.32034 24.4477 3.67121 25.7985C5.02208 27.1494 6.85357 27.9094 8.76399 27.9117H21.038C22.9479 27.9078 24.7783 27.1467 26.128 25.7953C27.4776 24.444 28.2364 22.6126 28.238 20.7027V8.43574C28.2367 6.52576 27.478 4.69425 26.1282 3.34285C24.7785 1.99144 22.948 1.23045 21.038 1.22674H8.76399Z" fill="#B19B8C"/>
<path d="M20.1849 22.2953L14.8699 15.5953L9.55494 22.2953H7.81494L13.9849 14.6193L8.05094 7.23633H9.85094L14.9289 13.6143L20.0069 7.23633H21.7489L15.8149 14.5883L21.9849 22.2943L20.1849 22.2953Z" fill="#B19B8C"/>
</svg>
