<svg width="42" height="29" viewBox="0 0 42 29" fill="none" xmlns="http://www.w3.org/2000/svg">
<path d="M35.328 28.9997H7.18999C5.45499 28.9979 3.79157 28.3078 2.56474 27.081C1.3379 25.8542 0.647849 24.1907 0.645996 22.4557V6.67974C0.647849 4.94473 1.3379 3.28132 2.56474 2.05448C3.79157 0.827645 5.45499 0.137595 7.18999 0.135742L35.328 0.135742C37.0631 0.137331 38.7267 0.827296 39.9536 2.05419C41.1804 3.28108 41.8704 4.94465 41.872 6.67974V22.4567C41.8704 24.1918 41.1804 25.8554 39.9536 27.0823C38.7267 28.3092 37.0631 28.9982 35.328 28.9997ZM7.18999 1.22674C5.74426 1.22833 4.35819 1.80335 3.3359 2.82564C2.31361 3.84793 1.73859 5.234 1.737 6.67974V22.4567C1.73859 23.9025 2.31361 25.2885 3.3359 26.3108C4.35819 27.3331 5.74426 27.9082 7.18999 27.9097H35.328C36.7737 27.9082 38.1598 27.3331 39.1821 26.3108C40.2044 25.2885 40.7794 23.9025 40.781 22.4567V6.67974C40.7794 5.234 40.2044 3.84793 39.1821 2.82564C38.1598 1.80335 36.7737 1.22833 35.328 1.22674H7.18999Z" fill="#B19B8C"/>
<path d="M14.986 22.9505V6.18555L29.206 14.5685L14.986 22.9505ZM15.881 7.75055V21.3855L27.444 14.5685L15.881 7.75055Z" fill="#B19B8C"/>
</svg>
