<svg width="34" height="30" viewBox="0 0 34 30" fill="none" xmlns="http://www.w3.org/2000/svg">
<path d="M29.937 3.41798C29.1709 2.65149 28.2612 2.04345 27.26 1.62861C26.2589 1.21377 25.1857 1.00025 24.102 1.00025C23.0183 1.00025 21.9452 1.21377 20.944 1.62861C19.9428 2.04345 19.0331 2.65149 18.267 3.41798L16.677 5.00798L15.087 3.41798C14.3218 2.64677 13.4119 2.03423 12.4094 1.61552C11.407 1.19682 10.3317 0.98018 9.24528 0.978043C8.15889 0.975906 7.08276 1.18831 6.07865 1.60307C5.07454 2.01783 4.16221 2.62678 3.39401 3.39498C2.62581 4.16318 2.01685 5.07551 1.60209 6.07962C1.18733 7.08373 0.97493 8.15986 0.977067 9.24626C0.979204 10.3327 1.19584 11.4079 1.61455 12.4104C2.03325 13.4129 2.64579 14.3228 3.41701 15.088L5.00701 16.678L16.677 28.348L28.347 16.678L29.937 15.088C30.7035 14.3218 31.3115 13.4122 31.7264 12.411C32.1412 11.4098 32.3547 10.3367 32.3547 9.25298C32.3547 8.16925 32.1412 7.09614 31.7264 6.09495C31.3115 5.09376 30.7035 4.18412 29.937 3.41798Z" stroke="#4E5B20" stroke-width="1.5" stroke-linecap="round" stroke-linejoin="round"/>
</svg>
