<svg width="21" height="27" viewBox="0 0 21 27" fill="none" xmlns="http://www.w3.org/2000/svg">
<path d="M10.0171 6.36102C9.28804 6.36102 8.57538 6.5772 7.96922 6.98223C7.36307 7.38725 6.89062 7.96292 6.61164 8.63645C6.33265 9.30998 6.25966 10.0511 6.40188 10.7661C6.54411 11.4811 6.89516 12.1379 7.41066 12.6534C7.92616 13.1689 8.58294 13.52 9.29795 13.6622C10.013 13.8044 10.7541 13.7314 11.4276 13.4524C12.1012 13.1735 12.6768 12.701 13.0819 12.0949C13.4869 11.4887 13.7031 10.776 13.7031 10.047C13.7031 9.06943 13.3147 8.13189 12.6235 7.44063C11.9322 6.74937 10.9946 6.36102 10.0171 6.36102ZM10.0171 11.89C9.65255 11.89 9.29622 11.7819 8.99314 11.5794C8.69006 11.3769 8.45384 11.0891 8.31435 10.7523C8.17485 10.4155 8.13836 10.045 8.20947 9.68747C8.28058 9.32996 8.45611 9.00157 8.71386 8.74382C8.97161 8.48608 9.3 8.31055 9.6575 8.23944C10.015 8.16832 10.3856 8.20482 10.7223 8.34431C11.0591 8.48381 11.3469 8.72003 11.5495 9.02311C11.752 9.32619 11.8601 9.68251 11.8601 10.047C11.8601 10.5358 11.6659 11.0046 11.3203 11.3502C10.9746 11.6959 10.5059 11.89 10.0171 11.89Z" fill="#4E5B20"/>
<path d="M17.1008 2.95898C15.3498 1.20664 13.0116 0.165298 10.5377 0.0360522C8.06382 -0.0931936 5.62981 0.698828 3.70572 2.25916C1.78163 3.81949 0.503962 6.03744 0.119467 8.48466C-0.265028 10.9319 0.270925 13.4348 1.62382 15.51L8.58782 26.201C8.74279 26.4389 8.95469 26.6344 9.20431 26.7697C9.45393 26.905 9.73338 26.9759 10.0173 26.9759C10.3013 26.9759 10.5807 26.905 10.8303 26.7697C11.0799 26.6344 11.2919 26.4389 11.4468 26.201L18.4108 15.51C19.6649 13.585 20.2192 11.2873 19.9807 9.00226C19.7422 6.71718 18.7254 4.58354 17.1008 2.95898ZM16.8668 14.504L10.0178 25.018L3.16782 14.504C2.36467 13.2704 1.90951 11.8429 1.85041 10.3721C1.79131 8.90137 2.13046 7.44193 2.83205 6.14793C3.53364 4.85393 4.57163 3.77339 5.83642 3.02041C7.10121 2.26743 8.54586 1.86996 10.0178 1.86996C11.4898 1.86996 12.9344 2.26743 14.1992 3.02041C15.464 3.77339 16.502 4.85393 17.2036 6.14793C17.9052 7.44193 18.2443 8.90137 18.1852 10.3721C18.1261 11.8429 17.67 13.2704 16.8668 14.504Z" fill="#4E5B20"/>
</svg>
