<svg width="16" height="16" viewBox="0 0 16 16" fill="none" xmlns="http://www.w3.org/2000/svg">
<path d="M7.49397 1.44693C7.5447 1.31477 7.63432 1.20109 7.75099 1.12091C7.86766 1.04073 8.0059 0.997803 8.14747 0.997803C8.28903 0.997803 8.42727 1.04073 8.54394 1.12091C8.66061 1.20109 8.75023 1.31477 8.80097 1.44693L10.262 5.49293C10.313 5.62461 10.4027 5.73778 10.5192 5.81756C10.6358 5.89733 10.7737 5.93999 10.915 5.93993H14.505C14.6491 5.93778 14.7902 5.98102 14.9084 6.06353C15.0266 6.14604 15.1159 6.26363 15.1636 6.39967C15.2112 6.5357 15.2149 6.68328 15.1741 6.82152C15.1332 6.95976 15.0499 7.08165 14.936 7.16993L12.381 9.46993C12.2665 9.55794 12.1828 9.67998 12.1421 9.8185C12.1013 9.95703 12.1054 10.1049 12.154 10.2409L13.094 14.1929C13.1386 14.3321 13.1386 14.4817 13.0938 14.6208C13.0491 14.76 12.962 14.8816 12.8447 14.9687C12.7274 15.0558 12.5857 15.104 12.4396 15.1066C12.2935 15.1091 12.1503 15.0659 12.03 14.9829L8.55997 12.7829C8.44107 12.6994 8.29929 12.6545 8.15397 12.6545C8.00864 12.6545 7.86686 12.6994 7.74797 12.7829L4.27797 14.9829C4.15767 15.0659 4.01443 15.1091 3.86832 15.1066C3.72221 15.104 3.58056 15.0558 3.46324 14.9687C3.34591 14.8816 3.25879 14.76 3.21408 14.6208C3.16938 14.4817 3.16934 14.3321 3.21397 14.1929L4.14697 10.2389C4.19549 10.1029 4.19966 9.95503 4.15888 9.8165C4.11809 9.67798 4.03445 9.55594 3.91997 9.46793L1.36197 7.16993C1.24794 7.0816 1.16462 6.95962 1.12379 6.82128C1.08297 6.68294 1.08672 6.53527 1.13452 6.39918C1.18232 6.2631 1.27173 6.14551 1.39009 6.06308C1.50845 5.98065 1.64975 5.93756 1.79397 5.93993H5.38397C5.5252 5.93999 5.66315 5.89733 5.77969 5.81756C5.89623 5.73778 5.98592 5.62461 6.03697 5.49293L7.49397 1.44693Z" stroke="#4E5B20" stroke-width="0.75" stroke-linecap="round" stroke-linejoin="round"/>
</svg>
